<?xml version="1.0" encoding="UTF-8" standalone="no"?>
<svg
   xmlns:dc="http://purl.org/dc/elements/1.1/"
   xmlns:cc="http://creativecommons.org/ns#"
   xmlns:rdf="http://www.w3.org/1999/02/22-rdf-syntax-ns#"
   xmlns:svg="http://www.w3.org/2000/svg"
   xmlns="http://www.w3.org/2000/svg"
   xmlns:xlink="http://www.w3.org/1999/xlink"
   version="1.1"
   id="svg2"
   viewBox="0 0 640.00003 640"
   height="682.66669"
   width="682.66669">
  <defs
     id="defs4">
    <linearGradient
       id="linearGradient4723">
      <stop
         id="stop4725"
         offset="0"
         style="stop-color:#157a05;stop-opacity:1" />
      <stop
         id="stop4727"
         offset="1"
         style="stop-color:#8cec27;stop-opacity:1" />
    </linearGradient>
    <clipPath
       clipPathUnits="userSpaceOnUse"
       id="clipPath5600">
      <path
         style="opacity:1;fill:#ffffff;fill-opacity:1;stroke:none;stroke-width:8;stroke-miterlimit:4;stroke-dasharray:none;stroke-dashoffset:0;stroke-opacity:1"
         d="m 416.04743,209.57467 a 210.71427,210.71427 0 0 0 -201.63871,156.16785 210.71427,210.71427 0 0 0 148.9961,258.07232 210.71427,210.71427 0 0 0 258.07031,-148.99795 210.71427,210.71427 0 0 0 -148.9961,-258.07035 210.71427,210.71427 0 0 0 -56.4316,-7.17187 z m 0.088,10 a 200.71428,200.71428 0 0 1 53.75188,6.83 200.71428,200.71428 0 0 1 141.92764,245.82422 200.71428,200.71428 0 0 1 -245.82416,141.92568 200.71428,200.71428 0 0 1 -141.92389,-245.82207 200.71428,200.71428 0 0 1 192.06827,-148.75783 z m 0.67771,10.66015 c -28.9322,-0.0158 -57.57612,6.77648 -84.07229,20.47847 -5.58051,2.89034 -7.71121,5.24233 -5.71092,8.93562 l 84.62499,146.57421 c 3.9199,6.67208 6.92071,6.5608 8.37693,-0.1625 l 43.89065,-163.80075 c 1.2404,-4.75141 0.77432,-5.32621 -7.65239,-7.81065 -13.09518,-2.80222 -26.30598,-4.21013 -39.45697,-4.21472 z m 55.19328,8.75394 c -2.49601,-0.0656 -4.01546,0.93883 -4.7636,3.45495 l -43.80467,163.4825 c -1.94613,7.48962 0.25549,9.53469 6.03899,5.81055 l 146.85941,-84.78907 c 4.23688,-2.48265 4.31319,-3.22025 0.11141,-10.93556 -23.2904,-35.97209 -57.50302,-62.6885 -98.8477,-75.84771 -2.24622,-0.71332 -4.09611,-1.13676 -5.59382,-1.17566 z m -150.93155,19.66206 c -1.45873,-0.0237 -3.57203,1.00841 -7.42973,3.10929 -35.97206,23.29037 -62.69049,57.50296 -75.8496,98.84772 -1.90228,5.98981 -1.74657,9.15834 2.2793,10.35536 l 163.48439,43.80474 c 7.48959,1.94628 9.5327,-0.25337 5.8086,-6.03706 l -84.78918,-146.8593 c -1.2413,-2.11844 -2.04519,-3.19729 -3.50392,-3.22075 z m 260.03112,70.01171 c -0.7849,-0.0158 -1.62359,0.23625 -2.54681,0.73629 l -146.57616,84.62511 c -6.67213,3.91977 -6.56093,6.92076 0.16224,8.37677 l 163.8008,43.89074 c 4.75141,1.24035 5.32608,0.77437 7.8105,-7.65244 8.96741,-41.90478 3.66661,-84.98932 -16.2636,-123.52924 -2.1678,-4.18535 -4.0319,-6.43032 -6.38678,-6.44723 z m -344.04481,45.09563 c -2.28245,0 -3.07026,1.84403 -4.93359,8.16404 -8.96736,41.90477 -3.66848,84.9895 16.2617,123.52942 2.89032,5.58046 5.2424,7.71121 8.93556,5.71094 l 146.57419,-84.62495 c 6.67208,-3.91978 6.5628,-6.92092 -0.16013,-8.37709 l -163.80288,-43.89058 c -1.18786,-0.31005 -2.1142,-0.51275 -2.87501,-0.51178 z m 190.67183,51.3438 c -3.55996,0.069 -4.01188,2.39073 -1.21878,6.72855 l 84.79113,146.86128 c 2.48259,4.23704 3.2182,4.31319 10.93359,0.11167 35.97198,-23.29037 62.6885,-57.50509 75.8476,-98.8497 1.90228,-5.98979 1.7466,-9.1585 -2.27929,-10.35552 l -163.48256,-43.80479 c -1.87239,-0.4865 -3.4051,-0.7143 -4.5918,-0.69133 z m -16.97067,1.91211 c -1.09041,0.0477 -2.54811,0.64684 -4.35552,1.81055 l -146.8593,84.79104 c -4.23692,2.48265 -4.31319,3.21828 -0.11142,10.93359 23.2903,35.97209 57.50296,62.6885 98.84765,75.84755 5.98981,1.90226 9.15839,1.74668 10.35542,-2.27929 l 43.80668,-163.48234 c 1.33799,-5.14927 0.7152,-7.72466 -1.68359,-7.6211 z m 8.35348,2.38285 c -1.42229,0.0345 -2.53748,1.74194 -3.26558,5.1035 l -43.88874,163.80075 c -1.2405,4.75143 -0.7744,5.32621 7.65242,7.8105 41.90477,8.96746 84.98929,3.66653 123.52929,-16.26358 5.58051,-2.89034 7.7112,-5.24251 5.71091,-8.93562 l -84.625,-146.57421 c -1.95992,-3.33596 -3.69103,-4.97547 -5.11333,-4.94134 z"
         id="path5602" />
    </clipPath>
    <linearGradient
       gradientTransform="rotate(-42.250155,202.40765,867.63633)"
       gradientUnits="userSpaceOnUse"
       y2="792.60211"
       x2="177.04013"
       y1="903.96155"
       x1="196.13852"
       id="linearGradient4739"
       xlink:href="#linearGradient4723" />
  </defs>
  <metadata
     id="metadata7">
    <rdf:RDF>
      <cc:Work
         rdf:about="">
        <dc:format>image/svg+xml</dc:format>
        <dc:type
           rdf:resource="http://purl.org/dc/dcmitype/StillImage" />
        <dc:title></dc:title>
      </cc:Work>
    </rdf:RDF>
  </metadata>
  <g
     transform="translate(-1070.0424,-0.0256195)"
     id="g868">
    <path
       id="path841"
       d="m 1247.0339,85.491704 h 286.017 c 24.6483,0 44.4915,19.843216 44.4915,44.491516 v 380.08476 c 0,24.64831 -19.8432,44.49153 -44.4915,44.49153 h -286.017 c -24.6483,0 -44.4915,-19.84322 -44.4915,-44.49153 V 129.98322 c 0,-24.6483 19.8432,-44.491516 44.4915,-44.491516 z"
       style="opacity:1;fill:#a05a2c;fill-opacity:1;stroke:#000000;stroke-width:9.375;stroke-linecap:butt;stroke-linejoin:miter;stroke-miterlimit:4;stroke-dasharray:none;stroke-dashoffset:0;stroke-opacity:1" />
    <path
       id="path847"
       style="opacity:1;fill:#e6e6e6;fill-opacity:1;stroke:#000000;stroke-width:4.6875;stroke-linecap:butt;stroke-linejoin:miter;stroke-miterlimit:4;stroke-dasharray:none;stroke-dashoffset:0;stroke-opacity:1"
       d="m 1202.7708,494.48343 c 0,23.8699 19.3504,43.2203 43.2203,43.2203 h 273.5328 c 23.87,0 43.2203,-19.3504 43.2203,-43.2203 v -33.35746 l -20.2926,7.19091 -149.2116,0.44944 -144.7171,0.89886 -29.6626,5.39319 z" />
    <path
       style="opacity:1;fill:none;fill-opacity:1;stroke:#000000;stroke-width:9.375;stroke-linecap:butt;stroke-linejoin:miter;stroke-miterlimit:4;stroke-dasharray:none;stroke-dashoffset:0;stroke-opacity:1"
       d="m 1577.4789,426.1697 c 0,23.86994 -19.3504,43.22035 -43.2203,43.22034"
       id="path838" />
    <path
       id="path843"
       d="m 1498.14,554.55955 h -257.7294 c -20.979,0 -37.8682,-18.9928 -37.8682,-42.58475 0,-23.59196 16.8892,-42.58476 37.8682,-42.58476 h 295.5977"
       style="opacity:1;fill:none;fill-opacity:1;stroke:#000000;stroke-width:9.375;stroke-linecap:butt;stroke-linejoin:miter;stroke-miterlimit:4;stroke-dasharray:none;stroke-dashoffset:0;stroke-opacity:1" />
    <rect
       style="opacity:1;fill:#e6e6e6;fill-opacity:1;stroke:none;stroke-width:4.6875;stroke-linecap:butt;stroke-linejoin:miter;stroke-miterlimit:4;stroke-dasharray:none;stroke-dashoffset:0;stroke-opacity:1"
       id="rect851"
       width="215.69328"
       height="141.44339"
       x="1282.1958"
       y="175.10086" />
    <path
       style="opacity:1;fill:none;fill-opacity:1;stroke:#000000;stroke-width:9.375;stroke-linecap:butt;stroke-linejoin:miter;stroke-miterlimit:4;stroke-dasharray:none;stroke-dashoffset:0;stroke-opacity:1"
       d="m 1443.9657,175.10087 h 53.9233 v 35.36085 m 0,70.72169 v 35.36085 h -53.9233 m -107.8466,0 h -53.9233 v -35.36085 m 0,-70.72169 v -35.36085 h 53.9233"
       id="rect853" />
  </g>
</svg>
