<?xml version="1.0" encoding="UTF-8" standalone="no"?>
<svg
   xmlns:dc="http://purl.org/dc/elements/1.1/"
   xmlns:cc="http://creativecommons.org/ns#"
   xmlns:rdf="http://www.w3.org/1999/02/22-rdf-syntax-ns#"
   xmlns:svg="http://www.w3.org/2000/svg"
   xmlns="http://www.w3.org/2000/svg"
   xmlns:xlink="http://www.w3.org/1999/xlink"
   width="2560"
   height="640"
   viewBox="0 0 2560.0001 639.99999"
   id="svg2"
   version="1.1">
  <defs
     id="defs4">
    <linearGradient
       id="linearGradient4499">
      <stop
         style="stop-color:#f31010;stop-opacity:1"
         offset="0"
         id="stop4501" />
      <stop
         style="stop-color:#ef4646;stop-opacity:1"
         offset="1"
         id="stop4503" />
    </linearGradient>
    <linearGradient
       id="linearGradient4489">
      <stop
         style="stop-color:#1d8f0e;stop-opacity:1"
         offset="0"
         id="stop4491" />
      <stop
         style="stop-color:#2fee15;stop-opacity:1"
         offset="1"
         id="stop4493" />
    </linearGradient>
    <linearGradient
       xlink:href="#linearGradient4499"
       id="linearGradient4505-3-9"
       x1="336.3808"
       y1="1003.8561"
       x2="105.84174"
       y2="647.27222"
       gradientUnits="userSpaceOnUse"
       gradientTransform="matrix(1.220263,0,0,1.220263,66.826923,-710.20939)" />
    <linearGradient
       xlink:href="#linearGradient4489"
       id="linearGradient4495-0-1"
       x1="280.82242"
       y1="1056.675"
       x2="36.084953"
       y2="669.78662"
       gradientUnits="userSpaceOnUse"
       gradientTransform="matrix(1.220263,0,0,1.220263,66.827863,-710.20926)" />
    <mask
       maskUnits="userSpaceOnUse"
       id="mask963">
      <g
         transform="matrix(1.063591,0,0,1.063591,-135.43523,-21.535892)"
         id="g983"
         style="font-style:normal;font-weight:normal;font-size:19.10715485px;line-height:1.25;font-family:sans-serif;letter-spacing:0px;word-spacing:0px;fill:#fffafa;fill-opacity:1;stroke:none;stroke-width:0.940211"
         aria-label="etiquette">
        <path
           id="path965"
           style="font-style:normal;font-variant:normal;font-weight:bold;font-stretch:normal;font-size:382.14306641px;font-family:Comfortaa;-inkscape-font-specification:'Comfortaa Bold';fill:#fffafa;fill-opacity:1;stroke-width:0.940211"
           d="m 770.86787,424.67658 q -31.71788,0 -56.55718,-13.375 -24.45715,-13.75716 -38.59645,-37.45003 -13.75715,-24.07501 -13.75715,-55.0286 0,-31.33573 12.99287,-55.0286 13.375,-24.07501 36.68573,-37.45002 23.31073,-13.75715 53.50003,-13.75715 29.80716,0 51.20717,13.37501 21.40001,12.99286 32.48216,36.30359 11.46429,22.92858 11.46429,53.11789 0,7.26071 -4.96786,12.22857 -4.96786,4.58572 -12.61072,4.58572 H 688.70711 v -30.57144 h 152.85722 l -15.66786,10.7 q -0.38215,-19.10715 -7.64286,-34.01073 -7.26072,-15.28572 -20.63573,-24.07502 -13.37501,-8.78929 -32.48216,-8.78929 -21.78216,0 -37.45002,9.55358 -15.28572,9.55358 -23.31073,26.36787 -8.025,16.43215 -8.025,37.45002 0,21.01787 9.55357,37.45002 9.55358,16.43216 26.36788,25.98573 16.81429,9.55358 38.59645,9.55358 11.84643,0 24.07501,-4.20357 12.61072,-4.58572 20.25358,-10.31787 5.73215,-4.20357 12.22858,-4.20357 6.87857,-0.38214 11.84643,3.82143 6.49644,5.73215 6.87858,12.61072 0.38214,6.87858 -6.11429,11.84644 -12.99286,10.31786 -32.48216,16.81429 -19.10715,6.49643 -36.68573,6.49643 z" />
        <path
           id="path967"
           style="font-style:normal;font-variant:normal;font-weight:bold;font-stretch:normal;font-size:382.14306641px;font-family:Comfortaa;-inkscape-font-specification:'Comfortaa Bold';fill:#fffafa;fill-opacity:1;stroke-width:0.940211"
           d="m 986.05023,423.14801 q -19.10715,0 -34.39287,-9.55358 -15.28573,-9.93572 -24.07502,-26.75001 -8.78929,-16.8143 -8.78929,-37.83216 V 166.73001 q 0,-8.40714 5.35001,-13.75715 5.35,-5.35 13.75715,-5.35 8.40714,0 13.75715,5.35 5.35,5.35001 5.35,13.75715 v 182.28225 q 0,15.28572 8.40715,25.60358 8.40714,10.31786 20.63572,10.31786 h 12.99287 q 6.8786,0 11.4643,5.35001 4.9678,5.35 4.9678,13.75715 0,8.40714 -6.4964,13.75715 -6.1143,5.35 -16.04999,5.35 z M 901.21447,254.62292 q -8.025,0 -12.99286,-4.58572 -4.96786,-4.58572 -4.96786,-11.46429 0,-7.64286 4.96786,-12.22858 4.96786,-4.58572 12.99286,-4.58572 h 88.27505 q 8.025,0 12.99288,4.58572 4.9678,4.58572 4.9678,12.22858 0,6.87857 -4.9678,11.46429 -4.96788,4.58572 -12.99288,4.58572 z" />
        <path
           id="path969"
           style="font-style:normal;font-variant:normal;font-weight:bold;font-stretch:normal;font-size:382.14306641px;font-family:Comfortaa;-inkscape-font-specification:'Comfortaa Bold';fill:#fffafa;fill-opacity:1;stroke-width:0.940211"
           d="m 1086.321,423.14801 q -8.4072,0 -14.1393,-5.35 -5.35,-5.73215 -5.35,-14.1393 V 233.60505 q 0,-8.78929 5.35,-14.13929 5.7321,-5.35001 14.1393,-5.35001 8.7893,0 14.1393,5.35001 5.35,5.35 5.35,14.13929 v 170.05366 q 0,8.40715 -5.35,14.1393 -5.35,5.35 -14.1393,5.35 z m 0,-243.04299 q -10.3179,0 -17.9608,-7.26072 -7.2607,-7.64286 -7.2607,-17.96072 0,-10.31787 7.2607,-17.57858 7.6429,-7.64286 17.9608,-7.64286 10.3178,0 17.5786,7.64286 7.6428,7.26071 7.6428,17.57858 0,10.31786 -7.6428,17.96072 -7.2608,7.26072 -17.5786,7.26072 z" />
        <path
           id="path971"
           style="font-style:normal;font-variant:normal;font-weight:bold;font-stretch:normal;font-size:382.14306641px;font-family:Comfortaa;-inkscape-font-specification:'Comfortaa Bold';fill:#fffafa;fill-opacity:1;stroke-width:0.940211"
           d="m 1359.4518,512.56949 q -8.7893,0 -14.5215,-5.73215 -5.35,-5.35 -5.35,-13.75715 V 389.90156 q -12.9928,16.05001 -32.1,25.60359 -19.1071,9.17143 -41.6536,9.17143 -27.8964,0 -50.0607,-13.75715 -22.1643,-14.13929 -35.1572,-37.83216 -12.6107,-24.07501 -12.6107,-54.26432 0,-30.1893 13.7572,-54.26431 14.1393,-24.07502 37.8321,-37.83217 24.075,-14.13929 53.8822,-14.13929 29.8072,0 53.5,14.13929 23.6929,13.75715 37.45,37.83217 14.1393,24.07501 14.1393,54.26431 v 174.25724 q 0,8.40715 -5.35,13.75715 -5.35,5.73215 -13.7571,5.73215 z m -85.9822,-122.28578 q 19.4893,0 34.775,-9.17144 15.2857,-9.55357 24.075,-25.60358 8.7893,-16.43215 8.7893,-36.68574 0,-20.63572 -8.7893,-36.68573 -8.7893,-16.43215 -24.075,-25.60359 -15.2857,-9.55357 -34.775,-9.55357 -19.1072,0 -34.775,9.55357 -15.2857,9.17144 -24.4572,25.60359 -8.7893,16.05001 -8.7893,36.68573 0,20.25359 8.7893,36.68574 9.1715,16.05001 24.4572,25.60358 15.6678,9.17144 34.775,9.17144 z" />
        <path
           id="path973"
           style="font-style:normal;font-variant:normal;font-weight:bold;font-stretch:normal;font-size:382.14306641px;font-family:Comfortaa;-inkscape-font-specification:'Comfortaa Bold';fill:#fffafa;fill-opacity:1;stroke-width:0.940211"
           d="m 1535.2854,425.05873 q -26.3679,0 -47.3858,-11.08215 -20.6357,-11.4643 -32.8643,-33.24645 -11.8464,-21.78215 -11.8464,-53.50003 v -94.00719 q 0,-8.40715 5.35,-13.75715 5.7321,-5.73215 14.1393,-5.73215 8.4071,0 13.7571,5.73215 5.7322,5.35 5.7322,13.75715 v 94.00719 q 0,21.40001 8.025,35.53931 8.025,13.75715 21.7821,20.63572 13.7572,6.49643 30.9536,6.49643 16.4322,0 29.0429,-6.49643 12.9929,-6.49643 20.6357,-17.57858 7.6429,-11.08215 7.6429,-24.8393 h 24.075 q 0,23.69287 -11.8464,42.80002 -11.4643,19.10716 -31.7179,30.18931 -19.8715,11.08215 -45.475,11.08215 z m 84.4536,-1.91072 q -8.4072,0 -14.1393,-5.35 -5.35,-5.73215 -5.35,-14.1393 v -170.4358 q 0,-8.78929 5.35,-14.1393 5.7321,-5.35 14.1393,-5.35 8.7893,0 14.1393,5.35 5.35,5.35001 5.35,14.1393 v 170.4358 q 0,8.40715 -5.35,14.1393 -5.35,5.35 -14.1393,5.35 z" />
        <path
           id="path975"
           style="font-style:normal;font-variant:normal;font-weight:bold;font-stretch:normal;font-size:382.14306641px;font-family:Comfortaa;-inkscape-font-specification:'Comfortaa Bold';fill:#fffafa;fill-opacity:1;stroke-width:0.940211"
           d="m 1806.0875,424.67658 q -31.7179,0 -56.5572,-13.375 -24.4572,-13.75716 -38.5965,-37.45003 -13.7571,-24.07501 -13.7571,-55.0286 0,-31.33573 12.9929,-55.0286 13.375,-24.07501 36.6857,-37.45002 23.3107,-13.75715 53.5,-13.75715 29.8072,0 51.2072,13.37501 21.4,12.99286 32.4822,36.30359 11.4642,22.92858 11.4642,53.11789 0,7.26071 -4.9678,12.22857 -4.9679,4.58572 -12.6107,4.58572 h -154.0037 v -30.57144 h 152.8572 l -15.6678,10.7 q -0.3822,-19.10715 -7.6429,-34.01073 -7.2607,-15.28572 -20.6357,-24.07502 -13.375,-8.78929 -32.4822,-8.78929 -21.7821,0 -37.45,9.55358 -15.2857,9.55358 -23.3107,26.36787 -8.025,16.43215 -8.025,37.45002 0,21.01787 9.5535,37.45002 9.5536,16.43216 26.3679,25.98573 16.8143,9.55358 38.5965,9.55358 11.8464,0 24.075,-4.20357 12.6107,-4.58572 20.2536,-10.31787 5.7321,-4.20357 12.2285,-4.20357 6.8786,-0.38214 11.8465,3.82143 6.4964,5.73215 6.8786,12.61072 0.3821,6.87858 -6.1143,11.84644 -12.9929,10.31786 -32.4822,16.81429 -19.1071,6.49643 -36.6857,6.49643 z" />
        <path
           id="path977"
           style="font-style:normal;font-variant:normal;font-weight:bold;font-stretch:normal;font-size:382.14306641px;font-family:Comfortaa;-inkscape-font-specification:'Comfortaa Bold';fill:#fffafa;fill-opacity:1;stroke-width:0.940211"
           d="m 2021.2699,423.14801 q -19.1072,0 -34.3929,-9.55358 -15.2857,-9.93572 -24.075,-26.75001 -8.7893,-16.8143 -8.7893,-37.83216 V 166.73001 q 0,-8.40714 5.35,-13.75715 5.35,-5.35 13.7571,-5.35 8.4072,0 13.7572,5.35 5.35,5.35001 5.35,13.75715 v 182.28225 q 0,15.28572 8.4071,25.60358 8.4072,10.31786 20.6358,10.31786 h 12.9928 q 6.8786,0 11.4643,5.35001 4.9679,5.35 4.9679,13.75715 0,8.40714 -6.4965,13.75715 -6.1143,5.35 -16.05,5.35 z m -84.8358,-168.52509 q -8.025,0 -12.9929,-4.58572 -4.9678,-4.58572 -4.9678,-11.46429 0,-7.64286 4.9678,-12.22858 4.9679,-4.58572 12.9929,-4.58572 h 88.275 q 8.025,0 12.9929,4.58572 4.9679,4.58572 4.9679,12.22858 0,6.87857 -4.9679,11.46429 -4.9679,4.58572 -12.9929,4.58572 z" />
        <path
           id="path979"
           style="font-style:normal;font-variant:normal;font-weight:bold;font-stretch:normal;font-size:382.14306641px;font-family:Comfortaa;-inkscape-font-specification:'Comfortaa Bold';fill:#fffafa;fill-opacity:1;stroke-width:0.940211"
           d="m 2174.2763,423.14801 q -19.1071,0 -34.3929,-9.55358 -15.2857,-9.93572 -24.075,-26.75001 -8.7893,-16.8143 -8.7893,-37.83216 V 166.73001 q 0,-8.40714 5.35,-13.75715 5.35,-5.35 13.7572,-5.35 8.4071,0 13.7571,5.35 5.35,5.35001 5.35,13.75715 v 182.28225 q 0,15.28572 8.4072,25.60358 8.4071,10.31786 20.6357,10.31786 h 12.9929 q 6.8786,0 11.4643,5.35001 4.9678,5.35 4.9678,13.75715 0,8.40714 -6.4964,13.75715 -6.1143,5.35 -16.05,5.35 z m -84.8357,-168.52509 q -8.025,0 -12.9929,-4.58572 -4.9679,-4.58572 -4.9679,-11.46429 0,-7.64286 4.9679,-12.22858 4.9679,-4.58572 12.9929,-4.58572 h 88.275 q 8.025,0 12.9929,4.58572 4.9678,4.58572 4.9678,12.22858 0,6.87857 -4.9678,11.46429 -4.9679,4.58572 -12.9929,4.58572 z" />
        <path
           id="path981"
           style="font-style:normal;font-variant:normal;font-weight:bold;font-stretch:normal;font-size:382.14306641px;font-family:Comfortaa;-inkscape-font-specification:'Comfortaa Bold';fill:#fffafa;fill-opacity:1;stroke-width:0.940211"
           d="m 2349.4471,424.67658 q -31.7179,0 -56.5572,-13.375 -24.4571,-13.75716 -38.5964,-37.45003 -13.7572,-24.07501 -13.7572,-55.0286 0,-31.33573 12.9929,-55.0286 13.375,-24.07501 36.6857,-37.45002 23.3107,-13.75715 53.5,-13.75715 29.8072,0 51.2072,13.37501 21.4,12.99286 32.4822,36.30359 11.4643,22.92858 11.4643,53.11789 0,7.26071 -4.9679,12.22857 -4.9679,4.58572 -12.6107,4.58572 h -154.0037 v -30.57144 h 152.8573 l -15.6679,10.7 q -0.3822,-19.10715 -7.6429,-34.01073 -7.2607,-15.28572 -20.6357,-24.07502 -13.375,-8.78929 -32.4822,-8.78929 -21.7821,0 -37.45,9.55358 -15.2857,9.55358 -23.3107,26.36787 -8.025,16.43215 -8.025,37.45002 0,21.01787 9.5536,37.45002 9.5535,16.43216 26.3678,25.98573 16.8143,9.55358 38.5965,9.55358 11.8464,0 24.075,-4.20357 12.6107,-4.58572 20.2536,-10.31787 5.7321,-4.20357 12.2286,-4.20357 6.8785,-0.38214 11.8464,3.82143 6.4964,5.73215 6.8786,12.61072 0.3821,6.87858 -6.1143,11.84644 -12.9929,10.31786 -32.4822,16.81429 -19.1071,6.49643 -36.6857,6.49643 z" />
      </g>
    </mask>
    <linearGradient
       xlink:href="#linearGradient4499"
       id="linearGradient991"
       x1="1514.7419"
       y1="477.97055"
       x2="1510.3608"
       y2="142.62596"
       gradientUnits="userSpaceOnUse" />
    <linearGradient
       xlink:href="#linearGradient4489"
       id="linearGradient1001"
       x1="1456.6385"
       y1="497.04892"
       x2="1456.6385"
       y2="311.04385"
       gradientUnits="userSpaceOnUse" />
  </defs>
  <metadata
     id="metadata7">
    <rdf:RDF>
      <cc:Work
         rdf:about="">
        <dc:format>image/svg+xml</dc:format>
        <dc:type
           rdf:resource="http://purl.org/dc/dcmitype/StillImage" />
        <dc:title></dc:title>
      </cc:Work>
    </rdf:RDF>
  </metadata>
  <path
     id="path4480"
     d="m 573.17315,444.37019 c -48.25919,77.78171 -134.42937,129.57907 -232.69753,129.57907 -151.13202,0 -273.648697,-122.51669 -273.648697,-273.64869 0,-90.63158 44.059897,-170.97205 111.928527,-220.771487 6.51438,-4.779996 13.24791,-9.279034 20.18309,-13.478366 z"
     style="opacity:1;fill:url(#linearGradient4505-3-9);fill-opacity:1;fill-rule:nonzero;stroke:none;stroke-width:19.16129684;stroke-linecap:round;stroke-linejoin:miter;stroke-miterlimit:4;stroke-dasharray:none;stroke-dashoffset:0;stroke-opacity:1" />
  <path
     id="circle4482"
     d="M 178.24792,78.766505 C 107.30648,130.14717 66.452241,211.94323 66.319393,299.53686 66.319375,450.66888 189.34458,573.94828 340.47661,573.94828 428.2425,573.84456 511.5918,532.18966 562.97034,461.03416 c -46.64082,33.96568 -103.78292,51.78066 -161.48062,51.90097 -151.13198,0 -274.15719,-123.27939 -274.15718,-274.41142 0.095,-57.55121 17.12911,-113.1671 50.91538,-159.757205 z"
     style="opacity:1;fill:url(#linearGradient4495-0-1);fill-opacity:1;fill-rule:nonzero;stroke:none;stroke-width:19.16129684;stroke-linecap:round;stroke-linejoin:round;stroke-miterlimit:4;stroke-dasharray:none;stroke-dashoffset:0;stroke-opacity:1" />
  <path
     style="opacity:1;fill:none;fill-opacity:1;fill-rule:nonzero;stroke:#000000;stroke-width:16.25600052;stroke-linecap:round;stroke-linejoin:round;stroke-miterlimit:4;stroke-dasharray:none;stroke-dashoffset:0;stroke-opacity:1"
     d="m 573.17315,444.37019 c -48.25919,77.78171 -134.42937,129.57907 -232.69753,129.57907 -151.13202,0 -273.648697,-122.51669 -273.648697,-273.64869 0,-90.63158 44.059897,-170.97205 111.928527,-220.771487 6.51438,-4.779996 13.24791,-9.279034 20.18309,-13.478366 z"
     id="path4252" />
  <g
     transform="matrix(1.063591,0,0,1.063591,-135.43523,-21.535892)"
     id="g939"
     style="font-style:normal;font-weight:normal;font-size:19.10715485px;line-height:1.25;font-family:sans-serif;letter-spacing:0px;word-spacing:0px;fill:#f31616;fill-opacity:1;stroke:#000000;stroke-width:23.50527599;stroke-opacity:1;stroke-miterlimit:4;stroke-dasharray:none"
     aria-label="etiquette">
    <path
       id="path921"
       style="font-style:normal;font-variant:normal;font-weight:bold;font-stretch:normal;font-size:382.14306641px;font-family:Comfortaa;-inkscape-font-specification:'Comfortaa Bold';fill:#f31616;fill-opacity:1;stroke-width:23.50527599;stroke:#000000;stroke-opacity:1;stroke-miterlimit:4;stroke-dasharray:none;stroke-linejoin:bevel"
       d="m 770.86787,424.67658 q -31.71788,0 -56.55718,-13.375 -24.45715,-13.75716 -38.59645,-37.45003 -13.75715,-24.07501 -13.75715,-55.0286 0,-31.33573 12.99287,-55.0286 13.375,-24.07501 36.68573,-37.45002 23.31073,-13.75715 53.50003,-13.75715 29.80716,0 51.20717,13.37501 21.40001,12.99286 32.48216,36.30359 11.46429,22.92858 11.46429,53.11789 0,7.26071 -4.96786,12.22857 -4.96786,4.58572 -12.61072,4.58572 H 688.70711 v -30.57144 h 152.85722 l -15.66786,10.7 q -0.38215,-19.10715 -7.64286,-34.01073 -7.26072,-15.28572 -20.63573,-24.07502 -13.37501,-8.78929 -32.48216,-8.78929 -21.78216,0 -37.45002,9.55358 -15.28572,9.55358 -23.31073,26.36787 -8.025,16.43215 -8.025,37.45002 0,21.01787 9.55357,37.45002 9.55358,16.43216 26.36788,25.98573 16.81429,9.55358 38.59645,9.55358 11.84643,0 24.07501,-4.20357 12.61072,-4.58572 20.25358,-10.31787 5.73215,-4.20357 12.22858,-4.20357 6.87857,-0.38214 11.84643,3.82143 6.49644,5.73215 6.87858,12.61072 0.38214,6.87858 -6.11429,11.84644 -12.99286,10.31786 -32.48216,16.81429 -19.10715,6.49643 -36.68573,6.49643 z" />
    <path
       id="path923"
       style="font-style:normal;font-variant:normal;font-weight:bold;font-stretch:normal;font-size:382.14306641px;font-family:Comfortaa;-inkscape-font-specification:'Comfortaa Bold';fill:#f31616;fill-opacity:1;stroke-width:23.50527599;stroke:#000000;stroke-opacity:1;stroke-miterlimit:4;stroke-dasharray:none"
       d="m 986.05023,423.14801 q -19.10715,0 -34.39287,-9.55358 -15.28573,-9.93572 -24.07502,-26.75001 -8.78929,-16.8143 -8.78929,-37.83216 V 166.73001 q 0,-8.40714 5.35001,-13.75715 5.35,-5.35 13.75715,-5.35 8.40714,0 13.75715,5.35 5.35,5.35001 5.35,13.75715 v 182.28225 q 0,15.28572 8.40715,25.60358 8.40714,10.31786 20.63572,10.31786 h 12.99287 q 6.8786,0 11.4643,5.35001 4.9678,5.35 4.9678,13.75715 0,8.40714 -6.4964,13.75715 -6.1143,5.35 -16.04999,5.35 z M 901.21447,254.62292 q -8.025,0 -12.99286,-4.58572 -4.96786,-4.58572 -4.96786,-11.46429 0,-7.64286 4.96786,-12.22858 4.96786,-4.58572 12.99286,-4.58572 h 88.27505 q 8.025,0 12.99288,4.58572 4.9678,4.58572 4.9678,12.22858 0,6.87857 -4.9678,11.46429 -4.96788,4.58572 -12.99288,4.58572 z" />
    <path
       id="path925"
       style="font-style:normal;font-variant:normal;font-weight:bold;font-stretch:normal;font-size:382.14306641px;font-family:Comfortaa;-inkscape-font-specification:'Comfortaa Bold';fill:#f31616;fill-opacity:1;stroke-width:23.50527599;stroke:#000000;stroke-opacity:1;stroke-miterlimit:4;stroke-dasharray:none"
       d="m 1086.321,423.14801 q -8.4072,0 -14.1393,-5.35 -5.35,-5.73215 -5.35,-14.1393 V 233.60505 q 0,-8.78929 5.35,-14.13929 5.7321,-5.35001 14.1393,-5.35001 8.7893,0 14.1393,5.35001 5.35,5.35 5.35,14.13929 v 170.05366 q 0,8.40715 -5.35,14.1393 -5.35,5.35 -14.1393,5.35 z m 0,-243.04299 q -10.3179,0 -17.9608,-7.26072 -7.2607,-7.64286 -7.2607,-17.96072 0,-10.31787 7.2607,-17.57858 7.6429,-7.64286 17.9608,-7.64286 10.3178,0 17.5786,7.64286 7.6428,7.26071 7.6428,17.57858 0,10.31786 -7.6428,17.96072 -7.2608,7.26072 -17.5786,7.26072 z" />
    <path
       id="path927"
       style="font-style:normal;font-variant:normal;font-weight:bold;font-stretch:normal;font-size:382.14306641px;font-family:Comfortaa;-inkscape-font-specification:'Comfortaa Bold';fill:#f31616;fill-opacity:1;stroke-width:23.50527599;stroke:#000000;stroke-opacity:1;stroke-miterlimit:4;stroke-dasharray:none"
       d="m 1359.4518,512.56949 q -8.7893,0 -14.5215,-5.73215 -5.35,-5.35 -5.35,-13.75715 V 389.90156 q -12.9928,16.05001 -32.1,25.60359 -19.1071,9.17143 -41.6536,9.17143 -27.8964,0 -50.0607,-13.75715 -22.1643,-14.13929 -35.1572,-37.83216 -12.6107,-24.07501 -12.6107,-54.26432 0,-30.1893 13.7572,-54.26431 14.1393,-24.07502 37.8321,-37.83217 24.075,-14.13929 53.8822,-14.13929 29.8072,0 53.5,14.13929 23.6929,13.75715 37.45,37.83217 14.1393,24.07501 14.1393,54.26431 v 174.25724 q 0,8.40715 -5.35,13.75715 -5.35,5.73215 -13.7571,5.73215 z m -85.9822,-122.28578 q 19.4893,0 34.775,-9.17144 15.2857,-9.55357 24.075,-25.60358 8.7893,-16.43215 8.7893,-36.68574 0,-20.63572 -8.7893,-36.68573 -8.7893,-16.43215 -24.075,-25.60359 -15.2857,-9.55357 -34.775,-9.55357 -19.1072,0 -34.775,9.55357 -15.2857,9.17144 -24.4572,25.60359 -8.7893,16.05001 -8.7893,36.68573 0,20.25359 8.7893,36.68574 9.1715,16.05001 24.4572,25.60358 15.6678,9.17144 34.775,9.17144 z" />
    <path
       id="path929"
       style="font-style:normal;font-variant:normal;font-weight:bold;font-stretch:normal;font-size:382.14306641px;font-family:Comfortaa;-inkscape-font-specification:'Comfortaa Bold';fill:#f31616;fill-opacity:1;stroke-width:23.50527599;stroke:#000000;stroke-opacity:1;stroke-miterlimit:4;stroke-dasharray:none"
       d="m 1535.2854,425.05873 q -26.3679,0 -47.3858,-11.08215 -20.6357,-11.4643 -32.8643,-33.24645 -11.8464,-21.78215 -11.8464,-53.50003 v -94.00719 q 0,-8.40715 5.35,-13.75715 5.7321,-5.73215 14.1393,-5.73215 8.4071,0 13.7571,5.73215 5.7322,5.35 5.7322,13.75715 v 94.00719 q 0,21.40001 8.025,35.53931 8.025,13.75715 21.7821,20.63572 13.7572,6.49643 30.9536,6.49643 16.4322,0 29.0429,-6.49643 12.9929,-6.49643 20.6357,-17.57858 7.6429,-11.08215 7.6429,-24.8393 h 24.075 q 0,23.69287 -11.8464,42.80002 -11.4643,19.10716 -31.7179,30.18931 -19.8715,11.08215 -45.475,11.08215 z m 84.4536,-1.91072 q -8.4072,0 -14.1393,-5.35 -5.35,-5.73215 -5.35,-14.1393 v -170.4358 q 0,-8.78929 5.35,-14.1393 5.7321,-5.35 14.1393,-5.35 8.7893,0 14.1393,5.35 5.35,5.35001 5.35,14.1393 v 170.4358 q 0,8.40715 -5.35,14.1393 -5.35,5.35 -14.1393,5.35 z" />
    <path
       id="path931"
       style="font-style:normal;font-variant:normal;font-weight:bold;font-stretch:normal;font-size:382.14306641px;font-family:Comfortaa;-inkscape-font-specification:'Comfortaa Bold';fill:#f31616;fill-opacity:1;stroke-width:23.50527599;stroke:#000000;stroke-opacity:1;stroke-miterlimit:4;stroke-dasharray:none;stroke-linejoin:bevel"
       d="m 1806.0875,424.67658 q -31.7179,0 -56.5572,-13.375 -24.4572,-13.75716 -38.5965,-37.45003 -13.7571,-24.07501 -13.7571,-55.0286 0,-31.33573 12.9929,-55.0286 13.375,-24.07501 36.6857,-37.45002 23.3107,-13.75715 53.5,-13.75715 29.8072,0 51.2072,13.37501 21.4,12.99286 32.4822,36.30359 11.4642,22.92858 11.4642,53.11789 0,7.26071 -4.9678,12.22857 -4.9679,4.58572 -12.6107,4.58572 h -154.0037 v -30.57144 h 152.8572 l -15.6678,10.7 q -0.3822,-19.10715 -7.6429,-34.01073 -7.2607,-15.28572 -20.6357,-24.07502 -13.375,-8.78929 -32.4822,-8.78929 -21.7821,0 -37.45,9.55358 -15.2857,9.55358 -23.3107,26.36787 -8.025,16.43215 -8.025,37.45002 0,21.01787 9.5535,37.45002 9.5536,16.43216 26.3679,25.98573 16.8143,9.55358 38.5965,9.55358 11.8464,0 24.075,-4.20357 12.6107,-4.58572 20.2536,-10.31787 5.7321,-4.20357 12.2285,-4.20357 6.8786,-0.38214 11.8465,3.82143 6.4964,5.73215 6.8786,12.61072 0.3821,6.87858 -6.1143,11.84644 -12.9929,10.31786 -32.4822,16.81429 -19.1071,6.49643 -36.6857,6.49643 z" />
    <path
       id="path933"
       style="font-style:normal;font-variant:normal;font-weight:bold;font-stretch:normal;font-size:382.14306641px;font-family:Comfortaa;-inkscape-font-specification:'Comfortaa Bold';fill:#f31616;fill-opacity:1;stroke-width:23.50527599;stroke:#000000;stroke-opacity:1;stroke-miterlimit:4;stroke-dasharray:none"
       d="m 2021.2699,423.14801 q -19.1072,0 -34.3929,-9.55358 -15.2857,-9.93572 -24.075,-26.75001 -8.7893,-16.8143 -8.7893,-37.83216 V 166.73001 q 0,-8.40714 5.35,-13.75715 5.35,-5.35 13.7571,-5.35 8.4072,0 13.7572,5.35 5.35,5.35001 5.35,13.75715 v 182.28225 q 0,15.28572 8.4071,25.60358 8.4072,10.31786 20.6358,10.31786 h 12.9928 q 6.8786,0 11.4643,5.35001 4.9679,5.35 4.9679,13.75715 0,8.40714 -6.4965,13.75715 -6.1143,5.35 -16.05,5.35 z m -84.8358,-168.52509 q -8.025,0 -12.9929,-4.58572 -4.9678,-4.58572 -4.9678,-11.46429 0,-7.64286 4.9678,-12.22858 4.9679,-4.58572 12.9929,-4.58572 h 88.275 q 8.025,0 12.9929,4.58572 4.9679,4.58572 4.9679,12.22858 0,6.87857 -4.9679,11.46429 -4.9679,4.58572 -12.9929,4.58572 z" />
    <path
       id="path935"
       style="font-style:normal;font-variant:normal;font-weight:bold;font-stretch:normal;font-size:382.14306641px;font-family:Comfortaa;-inkscape-font-specification:'Comfortaa Bold';fill:#f31616;fill-opacity:1;stroke-width:23.50527599;stroke:#000000;stroke-opacity:1;stroke-miterlimit:4;stroke-dasharray:none"
       d="m 2174.2763,423.14801 q -19.1071,0 -34.3929,-9.55358 -15.2857,-9.93572 -24.075,-26.75001 -8.7893,-16.8143 -8.7893,-37.83216 V 166.73001 q 0,-8.40714 5.35,-13.75715 5.35,-5.35 13.7572,-5.35 8.4071,0 13.7571,5.35 5.35,5.35001 5.35,13.75715 v 182.28225 q 0,15.28572 8.4072,25.60358 8.4071,10.31786 20.6357,10.31786 h 12.9929 q 6.8786,0 11.4643,5.35001 4.9678,5.35 4.9678,13.75715 0,8.40714 -6.4964,13.75715 -6.1143,5.35 -16.05,5.35 z m -84.8357,-168.52509 q -8.025,0 -12.9929,-4.58572 -4.9679,-4.58572 -4.9679,-11.46429 0,-7.64286 4.9679,-12.22858 4.9679,-4.58572 12.9929,-4.58572 h 88.275 q 8.025,0 12.9929,4.58572 4.9678,4.58572 4.9678,12.22858 0,6.87857 -4.9678,11.46429 -4.9679,4.58572 -12.9929,4.58572 z" />
    <path
       id="path937"
       style="font-style:normal;font-variant:normal;font-weight:bold;font-stretch:normal;font-size:382.14306641px;font-family:Comfortaa;-inkscape-font-specification:'Comfortaa Bold';fill:#f31616;fill-opacity:1;stroke-width:23.50527599;stroke:#000000;stroke-opacity:1;stroke-miterlimit:4;stroke-dasharray:none;stroke-linejoin:bevel"
       d="m 2349.4471,424.67658 q -31.7179,0 -56.5572,-13.375 -24.4571,-13.75716 -38.5964,-37.45003 -13.7572,-24.07501 -13.7572,-55.0286 0,-31.33573 12.9929,-55.0286 13.375,-24.07501 36.6857,-37.45002 23.3107,-13.75715 53.5,-13.75715 29.8072,0 51.2072,13.37501 21.4,12.99286 32.4822,36.30359 11.4643,22.92858 11.4643,53.11789 0,7.26071 -4.9679,12.22857 -4.9679,4.58572 -12.6107,4.58572 h -154.0037 v -30.57144 h 152.8573 l -15.6679,10.7 q -0.3822,-19.10715 -7.6429,-34.01073 -7.2607,-15.28572 -20.6357,-24.07502 -13.375,-8.78929 -32.4822,-8.78929 -21.7821,0 -37.45,9.55358 -15.2857,9.55358 -23.3107,26.36787 -8.025,16.43215 -8.025,37.45002 0,21.01787 9.5536,37.45002 9.5535,16.43216 26.3678,25.98573 16.8143,9.55358 38.5965,9.55358 11.8464,0 24.075,-4.20357 12.6107,-4.58572 20.2536,-10.31787 5.7321,-4.20357 12.2286,-4.20357 6.8785,-0.38214 11.8464,3.82143 6.4964,5.73215 6.8786,12.61072 0.3821,6.87858 -6.1143,11.84644 -12.9929,10.31786 -32.4822,16.81429 -19.1071,6.49643 -36.6857,6.49643 z" />
  </g>
  <g
     aria-label="etiquette"
     style="font-style:normal;font-weight:normal;font-size:19.10715485px;line-height:1.25;font-family:sans-serif;letter-spacing:0px;word-spacing:0px;fill:url(#linearGradient991);fill-opacity:1;stroke:none;stroke-width:0.940211"
     id="text876"
     transform="matrix(1.063591,0,0,1.063591,-135.43523,-21.535892)">
    <path
       d="m 770.86787,424.67658 q -31.71788,0 -56.55718,-13.375 -24.45715,-13.75716 -38.59645,-37.45003 -13.75715,-24.07501 -13.75715,-55.0286 0,-31.33573 12.99287,-55.0286 13.375,-24.07501 36.68573,-37.45002 23.31073,-13.75715 53.50003,-13.75715 29.80716,0 51.20717,13.37501 21.40001,12.99286 32.48216,36.30359 11.46429,22.92858 11.46429,53.11789 0,7.26071 -4.96786,12.22857 -4.96786,4.58572 -12.61072,4.58572 H 688.70711 v -30.57144 h 152.85722 l -15.66786,10.7 q -0.38215,-19.10715 -7.64286,-34.01073 -7.26072,-15.28572 -20.63573,-24.07502 -13.37501,-8.78929 -32.48216,-8.78929 -21.78216,0 -37.45002,9.55358 -15.28572,9.55358 -23.31073,26.36787 -8.025,16.43215 -8.025,37.45002 0,21.01787 9.55357,37.45002 9.55358,16.43216 26.36788,25.98573 16.81429,9.55358 38.59645,9.55358 11.84643,0 24.07501,-4.20357 12.61072,-4.58572 20.25358,-10.31787 5.73215,-4.20357 12.22858,-4.20357 6.87857,-0.38214 11.84643,3.82143 6.49644,5.73215 6.87858,12.61072 0.38214,6.87858 -6.11429,11.84644 -12.99286,10.31786 -32.48216,16.81429 -19.10715,6.49643 -36.68573,6.49643 z"
       style="font-style:normal;font-variant:normal;font-weight:bold;font-stretch:normal;font-size:382.14306641px;font-family:Comfortaa;-inkscape-font-specification:'Comfortaa Bold';fill:url(#linearGradient991);fill-opacity:1.0;stroke-width:0.940211"
       id="path902" />
    <path
       d="m 986.05023,423.14801 q -19.10715,0 -34.39287,-9.55358 -15.28573,-9.93572 -24.07502,-26.75001 -8.78929,-16.8143 -8.78929,-37.83216 V 166.73001 q 0,-8.40714 5.35001,-13.75715 5.35,-5.35 13.75715,-5.35 8.40714,0 13.75715,5.35 5.35,5.35001 5.35,13.75715 v 182.28225 q 0,15.28572 8.40715,25.60358 8.40714,10.31786 20.63572,10.31786 h 12.99287 q 6.8786,0 11.4643,5.35001 4.9678,5.35 4.9678,13.75715 0,8.40714 -6.4964,13.75715 -6.1143,5.35 -16.04999,5.35 z M 901.21447,254.62292 q -8.025,0 -12.99286,-4.58572 -4.96786,-4.58572 -4.96786,-11.46429 0,-7.64286 4.96786,-12.22858 4.96786,-4.58572 12.99286,-4.58572 h 88.27505 q 8.025,0 12.99288,4.58572 4.9678,4.58572 4.9678,12.22858 0,6.87857 -4.9678,11.46429 -4.96788,4.58572 -12.99288,4.58572 z"
       style="font-style:normal;font-variant:normal;font-weight:bold;font-stretch:normal;font-size:382.14306641px;font-family:Comfortaa;-inkscape-font-specification:'Comfortaa Bold';fill:url(#linearGradient991);fill-opacity:1.0;stroke-width:0.940211"
       id="path904" />
    <path
       d="m 1086.321,423.14801 q -8.4072,0 -14.1393,-5.35 -5.35,-5.73215 -5.35,-14.1393 V 233.60505 q 0,-8.78929 5.35,-14.13929 5.7321,-5.35001 14.1393,-5.35001 8.7893,0 14.1393,5.35001 5.35,5.35 5.35,14.13929 v 170.05366 q 0,8.40715 -5.35,14.1393 -5.35,5.35 -14.1393,5.35 z m 0,-243.04299 q -10.3179,0 -17.9608,-7.26072 -7.2607,-7.64286 -7.2607,-17.96072 0,-10.31787 7.2607,-17.57858 7.6429,-7.64286 17.9608,-7.64286 10.3178,0 17.5786,7.64286 7.6428,7.26071 7.6428,17.57858 0,10.31786 -7.6428,17.96072 -7.2608,7.26072 -17.5786,7.26072 z"
       style="font-style:normal;font-variant:normal;font-weight:bold;font-stretch:normal;font-size:382.14306641px;font-family:Comfortaa;-inkscape-font-specification:'Comfortaa Bold';fill:url(#linearGradient991);fill-opacity:1.0;stroke-width:0.940211"
       id="path906" />
    <path
       d="m 1359.4518,512.56949 q -8.7893,0 -14.5215,-5.73215 -5.35,-5.35 -5.35,-13.75715 V 389.90156 q -12.9928,16.05001 -32.1,25.60359 -19.1071,9.17143 -41.6536,9.17143 -27.8964,0 -50.0607,-13.75715 -22.1643,-14.13929 -35.1572,-37.83216 -12.6107,-24.07501 -12.6107,-54.26432 0,-30.1893 13.7572,-54.26431 14.1393,-24.07502 37.8321,-37.83217 24.075,-14.13929 53.8822,-14.13929 29.8072,0 53.5,14.13929 23.6929,13.75715 37.45,37.83217 14.1393,24.07501 14.1393,54.26431 v 174.25724 q 0,8.40715 -5.35,13.75715 -5.35,5.73215 -13.7571,5.73215 z m -85.9822,-122.28578 q 19.4893,0 34.775,-9.17144 15.2857,-9.55357 24.075,-25.60358 8.7893,-16.43215 8.7893,-36.68574 0,-20.63572 -8.7893,-36.68573 -8.7893,-16.43215 -24.075,-25.60359 -15.2857,-9.55357 -34.775,-9.55357 -19.1072,0 -34.775,9.55357 -15.2857,9.17144 -24.4572,25.60359 -8.7893,16.05001 -8.7893,36.68573 0,20.25359 8.7893,36.68574 9.1715,16.05001 24.4572,25.60358 15.6678,9.17144 34.775,9.17144 z"
       style="font-style:normal;font-variant:normal;font-weight:bold;font-stretch:normal;font-size:382.14306641px;font-family:Comfortaa;-inkscape-font-specification:'Comfortaa Bold';fill:url(#linearGradient991);fill-opacity:1.0;stroke-width:0.940211"
       id="path908" />
    <path
       d="m 1535.2854,425.05873 q -26.3679,0 -47.3858,-11.08215 -20.6357,-11.4643 -32.8643,-33.24645 -11.8464,-21.78215 -11.8464,-53.50003 v -94.00719 q 0,-8.40715 5.35,-13.75715 5.7321,-5.73215 14.1393,-5.73215 8.4071,0 13.7571,5.73215 5.7322,5.35 5.7322,13.75715 v 94.00719 q 0,21.40001 8.025,35.53931 8.025,13.75715 21.7821,20.63572 13.7572,6.49643 30.9536,6.49643 16.4322,0 29.0429,-6.49643 12.9929,-6.49643 20.6357,-17.57858 7.6429,-11.08215 7.6429,-24.8393 h 24.075 q 0,23.69287 -11.8464,42.80002 -11.4643,19.10716 -31.7179,30.18931 -19.8715,11.08215 -45.475,11.08215 z m 84.4536,-1.91072 q -8.4072,0 -14.1393,-5.35 -5.35,-5.73215 -5.35,-14.1393 v -170.4358 q 0,-8.78929 5.35,-14.1393 5.7321,-5.35 14.1393,-5.35 8.7893,0 14.1393,5.35 5.35,5.35001 5.35,14.1393 v 170.4358 q 0,8.40715 -5.35,14.1393 -5.35,5.35 -14.1393,5.35 z"
       style="font-style:normal;font-variant:normal;font-weight:bold;font-stretch:normal;font-size:382.14306641px;font-family:Comfortaa;-inkscape-font-specification:'Comfortaa Bold';fill:url(#linearGradient991);fill-opacity:1.0;stroke-width:0.940211"
       id="path910" />
    <path
       d="m 1806.0875,424.67658 q -31.7179,0 -56.5572,-13.375 -24.4572,-13.75716 -38.5965,-37.45003 -13.7571,-24.07501 -13.7571,-55.0286 0,-31.33573 12.9929,-55.0286 13.375,-24.07501 36.6857,-37.45002 23.3107,-13.75715 53.5,-13.75715 29.8072,0 51.2072,13.37501 21.4,12.99286 32.4822,36.30359 11.4642,22.92858 11.4642,53.11789 0,7.26071 -4.9678,12.22857 -4.9679,4.58572 -12.6107,4.58572 h -154.0037 v -30.57144 h 152.8572 l -15.6678,10.7 q -0.3822,-19.10715 -7.6429,-34.01073 -7.2607,-15.28572 -20.6357,-24.07502 -13.375,-8.78929 -32.4822,-8.78929 -21.7821,0 -37.45,9.55358 -15.2857,9.55358 -23.3107,26.36787 -8.025,16.43215 -8.025,37.45002 0,21.01787 9.5535,37.45002 9.5536,16.43216 26.3679,25.98573 16.8143,9.55358 38.5965,9.55358 11.8464,0 24.075,-4.20357 12.6107,-4.58572 20.2536,-10.31787 5.7321,-4.20357 12.2285,-4.20357 6.8786,-0.38214 11.8465,3.82143 6.4964,5.73215 6.8786,12.61072 0.3821,6.87858 -6.1143,11.84644 -12.9929,10.31786 -32.4822,16.81429 -19.1071,6.49643 -36.6857,6.49643 z"
       style="font-style:normal;font-variant:normal;font-weight:bold;font-stretch:normal;font-size:382.14306641px;font-family:Comfortaa;-inkscape-font-specification:'Comfortaa Bold';fill:url(#linearGradient991);fill-opacity:1.0;stroke-width:0.940211"
       id="path912" />
    <path
       d="m 2021.2699,423.14801 q -19.1072,0 -34.3929,-9.55358 -15.2857,-9.93572 -24.075,-26.75001 -8.7893,-16.8143 -8.7893,-37.83216 V 166.73001 q 0,-8.40714 5.35,-13.75715 5.35,-5.35 13.7571,-5.35 8.4072,0 13.7572,5.35 5.35,5.35001 5.35,13.75715 v 182.28225 q 0,15.28572 8.4071,25.60358 8.4072,10.31786 20.6358,10.31786 h 12.9928 q 6.8786,0 11.4643,5.35001 4.9679,5.35 4.9679,13.75715 0,8.40714 -6.4965,13.75715 -6.1143,5.35 -16.05,5.35 z m -84.8358,-168.52509 q -8.025,0 -12.9929,-4.58572 -4.9678,-4.58572 -4.9678,-11.46429 0,-7.64286 4.9678,-12.22858 4.9679,-4.58572 12.9929,-4.58572 h 88.275 q 8.025,0 12.9929,4.58572 4.9679,4.58572 4.9679,12.22858 0,6.87857 -4.9679,11.46429 -4.9679,4.58572 -12.9929,4.58572 z"
       style="font-style:normal;font-variant:normal;font-weight:bold;font-stretch:normal;font-size:382.14306641px;font-family:Comfortaa;-inkscape-font-specification:'Comfortaa Bold';fill:url(#linearGradient991);fill-opacity:1.0;stroke-width:0.940211"
       id="path914" />
    <path
       d="m 2174.2763,423.14801 q -19.1071,0 -34.3929,-9.55358 -15.2857,-9.93572 -24.075,-26.75001 -8.7893,-16.8143 -8.7893,-37.83216 V 166.73001 q 0,-8.40714 5.35,-13.75715 5.35,-5.35 13.7572,-5.35 8.4071,0 13.7571,5.35 5.35,5.35001 5.35,13.75715 v 182.28225 q 0,15.28572 8.4072,25.60358 8.4071,10.31786 20.6357,10.31786 h 12.9929 q 6.8786,0 11.4643,5.35001 4.9678,5.35 4.9678,13.75715 0,8.40714 -6.4964,13.75715 -6.1143,5.35 -16.05,5.35 z m -84.8357,-168.52509 q -8.025,0 -12.9929,-4.58572 -4.9679,-4.58572 -4.9679,-11.46429 0,-7.64286 4.9679,-12.22858 4.9679,-4.58572 12.9929,-4.58572 h 88.275 q 8.025,0 12.9929,4.58572 4.9678,4.58572 4.9678,12.22858 0,6.87857 -4.9678,11.46429 -4.9679,4.58572 -12.9929,4.58572 z"
       style="font-style:normal;font-variant:normal;font-weight:bold;font-stretch:normal;font-size:382.14306641px;font-family:Comfortaa;-inkscape-font-specification:'Comfortaa Bold';fill:url(#linearGradient991);fill-opacity:1.0;stroke-width:0.940211"
       id="path916" />
    <path
       d="m 2349.4471,424.67658 q -31.7179,0 -56.5572,-13.375 -24.4571,-13.75716 -38.5964,-37.45003 -13.7572,-24.07501 -13.7572,-55.0286 0,-31.33573 12.9929,-55.0286 13.375,-24.07501 36.6857,-37.45002 23.3107,-13.75715 53.5,-13.75715 29.8072,0 51.2072,13.37501 21.4,12.99286 32.4822,36.30359 11.4643,22.92858 11.4643,53.11789 0,7.26071 -4.9679,12.22857 -4.9679,4.58572 -12.6107,4.58572 h -154.0037 v -30.57144 h 152.8573 l -15.6679,10.7 q -0.3822,-19.10715 -7.6429,-34.01073 -7.2607,-15.28572 -20.6357,-24.07502 -13.375,-8.78929 -32.4822,-8.78929 -21.7821,0 -37.45,9.55358 -15.2857,9.55358 -23.3107,26.36787 -8.025,16.43215 -8.025,37.45002 0,21.01787 9.5536,37.45002 9.5535,16.43216 26.3678,25.98573 16.8143,9.55358 38.5965,9.55358 11.8464,0 24.075,-4.20357 12.6107,-4.58572 20.2536,-10.31787 5.7321,-4.20357 12.2286,-4.20357 6.8785,-0.38214 11.8464,3.82143 6.4964,5.73215 6.8786,12.61072 0.3821,6.87858 -6.1143,11.84644 -12.9929,10.31786 -32.4822,16.81429 -19.1071,6.49643 -36.6857,6.49643 z"
       style="font-style:normal;font-variant:normal;font-weight:bold;font-stretch:normal;font-size:382.14306641px;font-family:Comfortaa;-inkscape-font-specification:'Comfortaa Bold';fill:url(#linearGradient991);fill-opacity:1.0;stroke-width:0.940211"
       id="path918" />
  </g>
  <rect
     style="opacity:1;fill:url(#linearGradient1001);fill-opacity:1;stroke:none;stroke-width:20;stroke-linecap:butt;stroke-linejoin:bevel;stroke-miterlimit:4;stroke-dasharray:none;stroke-dashoffset:0;stroke-opacity:1"
     id="rect941"
     width="2131.5254"
     height="363.38983"
     x="448.81357"
     y="372.88135"
     mask="url(#mask963)" />
</svg>
