<?xml version="1.0" encoding="UTF-8" standalone="no"?>
<svg
   xmlns:dc="http://purl.org/dc/elements/1.1/"
   xmlns:cc="http://creativecommons.org/ns#"
   xmlns:rdf="http://www.w3.org/1999/02/22-rdf-syntax-ns#"
   xmlns:svg="http://www.w3.org/2000/svg"
   xmlns="http://www.w3.org/2000/svg"
   xmlns:xlink="http://www.w3.org/1999/xlink"
   version="1.1"
   id="svg2"
   viewBox="0 0 640.00003 640"
   height="640"
   width="640">
  <defs
     id="defs4">
    <linearGradient
       id="linearGradient4723">
      <stop
         id="stop4725"
         offset="0"
         style="stop-color:#157a05;stop-opacity:1" />
      <stop
         id="stop4727"
         offset="1"
         style="stop-color:#8cec27;stop-opacity:1" />
    </linearGradient>
    <clipPath
       clipPathUnits="userSpaceOnUse"
       id="clipPath5600">
      <path
         style="opacity:1;fill:#ffffff;fill-opacity:1;stroke:none;stroke-width:8;stroke-miterlimit:4;stroke-dasharray:none;stroke-dashoffset:0;stroke-opacity:1"
         d="m 416.04743,209.57467 a 210.71427,210.71427 0 0 0 -201.63871,156.16785 210.71427,210.71427 0 0 0 148.9961,258.07232 210.71427,210.71427 0 0 0 258.07031,-148.99795 210.71427,210.71427 0 0 0 -148.9961,-258.07035 210.71427,210.71427 0 0 0 -56.4316,-7.17187 z m 0.088,10 a 200.71428,200.71428 0 0 1 53.75188,6.83 A 200.71428,200.71428 0 0 1 611.81495,472.22889 200.71428,200.71428 0 0 1 365.99079,614.15457 200.71428,200.71428 0 0 1 224.0669,368.3325 200.71428,200.71428 0 0 1 416.13517,219.57467 Z m 0.67771,10.66015 c -28.9322,-0.0158 -57.57612,6.77648 -84.07229,20.47847 -5.58051,2.89034 -7.71121,5.24233 -5.71092,8.93562 l 84.62499,146.57421 c 3.9199,6.67208 6.92071,6.5608 8.37693,-0.1625 L 463.9225,242.25987 c 1.2404,-4.75141 0.77432,-5.32621 -7.65239,-7.81065 -13.09518,-2.80222 -26.30598,-4.21013 -39.45697,-4.21472 z m 55.19328,8.75394 c -2.49601,-0.0656 -4.01546,0.93883 -4.7636,3.45495 l -43.80467,163.4825 c -1.94613,7.48962 0.25549,9.53469 6.03899,5.81055 l 146.85941,-84.78907 c 4.23688,-2.48265 4.31319,-3.22025 0.11141,-10.93556 -23.2904,-35.97209 -57.50302,-62.6885 -98.8477,-75.84771 -2.24622,-0.71332 -4.09611,-1.13676 -5.59382,-1.17566 z m -150.93155,19.66206 c -1.45873,-0.0237 -3.57203,1.00841 -7.42973,3.10929 -35.97206,23.29037 -62.69049,57.50296 -75.8496,98.84772 -1.90228,5.98981 -1.74657,9.15834 2.2793,10.35536 l 163.48439,43.80474 c 7.48959,1.94628 9.5327,-0.25337 5.8086,-6.03706 l -84.78918,-146.8593 c -1.2413,-2.11844 -2.04519,-3.19729 -3.50392,-3.22075 z m 260.03112,70.01171 c -0.7849,-0.0158 -1.62359,0.23625 -2.54681,0.73629 l -146.57616,84.62511 c -6.67213,3.91977 -6.56093,6.92076 0.16224,8.37677 l 163.8008,43.89074 c 4.75141,1.24035 5.32608,0.77437 7.8105,-7.65244 8.96741,-41.90478 3.66661,-84.98932 -16.2636,-123.52924 -2.1678,-4.18535 -4.0319,-6.43032 -6.38678,-6.44723 z m -344.04481,45.09563 c -2.28245,0 -3.07026,1.84403 -4.93359,8.16404 -8.96736,41.90477 -3.66848,84.9895 16.2617,123.52942 2.89032,5.58046 5.2424,7.71121 8.93556,5.71094 l 146.57419,-84.62495 c 6.67208,-3.91978 6.5628,-6.92092 -0.16013,-8.37709 L 239.93603,374.26994 c -1.18786,-0.31005 -2.1142,-0.51275 -2.87501,-0.51178 z m 190.67183,51.3438 c -3.55996,0.069 -4.01188,2.39073 -1.21878,6.72855 l 84.79113,146.86128 c 2.48259,4.23704 3.2182,4.31319 10.93359,0.11167 35.97198,-23.29037 62.6885,-57.50509 75.8476,-98.8497 1.90228,-5.98979 1.7466,-9.1585 -2.27929,-10.35552 L 432.3247,425.79345 c -1.87239,-0.4865 -3.4051,-0.7143 -4.5918,-0.69133 z m -16.97067,1.91211 c -1.09041,0.0477 -2.54811,0.64684 -4.35552,1.81055 l -146.8593,84.79104 c -4.23692,2.48265 -4.31319,3.21828 -0.11142,10.93359 23.2903,35.97209 57.50296,62.6885 98.84765,75.84755 5.98981,1.90226 9.15839,1.74668 10.35542,-2.27929 l 43.80668,-163.48234 c 1.33799,-5.14927 0.7152,-7.72466 -1.68359,-7.6211 z m 8.35348,2.38285 c -1.42229,0.0345 -2.53748,1.74194 -3.26558,5.1035 L 371.9615,598.30117 c -1.2405,4.75143 -0.7744,5.32621 7.65242,7.8105 41.90477,8.96746 84.98929,3.66653 123.52929,-16.26358 5.58051,-2.89034 7.7112,-5.24251 5.71091,-8.93562 l -84.625,-146.57421 c -1.95992,-3.33596 -3.69103,-4.97547 -5.11333,-4.94134 z"
         id="path5602" />
    </clipPath>
    <linearGradient
       gradientTransform="matrix(0.74021631,-0.67236881,0.67236881,0.74021631,-530.7894,361.49036)"
       gradientUnits="userSpaceOnUse"
       y2="792.60211"
       x2="177.04013"
       y1="903.96155"
       x1="196.13852"
       id="linearGradient4739"
       xlink:href="#linearGradient4723" />
  </defs>
  <metadata
     id="metadata7">
    <rdf:RDF>
      <cc:Work
         rdf:about="">
        <dc:format>image/svg+xml</dc:format>
        <dc:type
           rdf:resource="http://purl.org/dc/dcmitype/StillImage" />
        <dc:title></dc:title>
      </cc:Work>
    </rdf:RDF>
  </metadata>
  <path
     id="path4146"
     d="m 320.41308,197.88372 c -53.01981,-1.34608 -107.01592,11.23844 -151.71734,49.83215 -51.08735,44.10709 -88.95789,120.9899 -101.916438,245.39196 l 21.21913,2.21045 C 100.60806,374.26594 136.88556,303.3649 182.63766,263.86408 c 45.75208,-39.50081 102.0555,-48.79514 158.35496,-43.35079 112.59892,10.88869 221.42486,82.14733 221.42486,82.14733 l 11.75855,-17.80241 c 0,0 -111.05989,-73.96943 -231.13129,-85.58072 -7.50446,-0.72571 -15.0574,-1.20148 -22.63166,-1.39377 z"
     style="color:#000000;font-style:normal;font-variant:normal;font-weight:normal;font-stretch:normal;font-size:medium;line-height:normal;font-family:sans-serif;text-indent:0;text-align:start;text-decoration:none;text-decoration-line:none;text-decoration-style:solid;text-decoration-color:#000000;letter-spacing:normal;word-spacing:normal;text-transform:none;direction:ltr;block-progression:tb;writing-mode:lr-tb;baseline-shift:baseline;text-anchor:start;white-space:normal;clip-rule:nonzero;display:inline;overflow:visible;visibility:visible;opacity:1;isolation:auto;mix-blend-mode:normal;color-interpolation:sRGB;color-interpolation-filters:linearRGB;solid-color:#000000;solid-opacity:1;fill:#000000;fill-opacity:1;fill-rule:evenodd;stroke:none;stroke-width:20;stroke-linecap:butt;stroke-linejoin:miter;stroke-miterlimit:4;stroke-dasharray:none;stroke-dashoffset:0;stroke-opacity:1;color-rendering:auto;image-rendering:auto;shape-rendering:auto;text-rendering:auto;enable-background:accumulate" />
  <path
     id="path4169"
     d="m 118.92414,129.33141 -53.182214,365.11288 15.833621,2.3063 53.182213,-365.11289 -15.83362,-2.30629 z"
     style="color:#000000;font-style:normal;font-variant:normal;font-weight:normal;font-stretch:normal;font-size:medium;line-height:normal;font-family:sans-serif;text-indent:0;text-align:start;text-decoration:none;text-decoration-line:none;text-decoration-style:solid;text-decoration-color:#000000;letter-spacing:normal;word-spacing:normal;text-transform:none;direction:ltr;block-progression:tb;writing-mode:lr-tb;baseline-shift:baseline;text-anchor:start;white-space:normal;clip-rule:nonzero;display:inline;overflow:visible;visibility:visible;opacity:1;isolation:auto;mix-blend-mode:normal;color-interpolation:sRGB;color-interpolation-filters:linearRGB;solid-color:#000000;solid-opacity:1;fill:#0000ff;fill-opacity:1;fill-rule:evenodd;stroke:none;stroke-width:15;stroke-linecap:butt;stroke-linejoin:miter;stroke-miterlimit:4;stroke-dasharray:none;stroke-dashoffset:0;stroke-opacity:1;color-rendering:auto;image-rendering:auto;shape-rendering:auto;text-rendering:auto;enable-background:accumulate" />
  <path
     style="opacity:1;fill:#0000ff;fill-opacity:1;fill-rule:nonzero;stroke:none;stroke-width:20;stroke-linecap:round;stroke-linejoin:round;stroke-miterlimit:4;stroke-dasharray:none;stroke-dashoffset:0;stroke-opacity:1"
     d="m 148.07634,135.28821 a 21.333721,21.333721 0 0 1 -21.33372,21.33372 21.333721,21.333721 0 0 1 -21.33373,-21.33372 21.333721,21.333721 0 0 1 21.33373,-21.33372 21.333721,21.333721 0 0 1 21.33372,21.33372 z"
     id="path4175" />
  <g
     transform="matrix(0.75426094,0.75426094,-0.75426094,0.75426094,300.36693,-18.671722)"
     id="g4186">
    <path
       style="opacity:1;fill:#0000ff;fill-opacity:1;fill-rule:nonzero;stroke:none;stroke-width:15;stroke-linecap:round;stroke-linejoin:miter;stroke-miterlimit:4;stroke-dasharray:none;stroke-dashoffset:0;stroke-opacity:1"
       d="m 172.582,469.60472 40,0 0,40 -40,0 z"
       id="rect4181" />
    <path
       id="path4184"
       d="m 182.582,479.60472 20,0 0,20 -20,0 z"
       style="opacity:1;fill:#ffffff;fill-opacity:1;fill-rule:nonzero;stroke:none;stroke-width:15;stroke-linecap:round;stroke-linejoin:miter;stroke-miterlimit:4;stroke-dasharray:none;stroke-dashoffset:0;stroke-opacity:1" />
  </g>
  <g
     id="g4190"
     transform="matrix(0.75426094,0.75426094,-0.75426094,0.75426094,787.69834,-218.26856)">
    <path
       id="path4192"
       d="m 172.582,469.60472 40,0 0,40 -40,0 z"
       style="opacity:1;fill:#0000ff;fill-opacity:1;fill-rule:nonzero;stroke:none;stroke-width:15;stroke-linecap:round;stroke-linejoin:miter;stroke-miterlimit:4;stroke-dasharray:none;stroke-dashoffset:0;stroke-opacity:1" />
    <path
       style="opacity:1;fill:#ffffff;fill-opacity:1;fill-rule:nonzero;stroke:none;stroke-width:15;stroke-linecap:round;stroke-linejoin:miter;stroke-miterlimit:4;stroke-dasharray:none;stroke-dashoffset:0;stroke-opacity:1"
       d="m 182.582,479.60472 20,0 0,20 -20,0 z"
       id="path4194" />
  </g>
  <g
     id="text4198"
     style="font-style:normal;font-variant:normal;font-weight:normal;font-stretch:normal;font-size:15px;line-height:125%;font-family:'Microsoft YaHei';-inkscape-font-specification:'Microsoft YaHei';letter-spacing:0px;word-spacing:0px;fill:#000000;fill-opacity:1;stroke:none;stroke-width:1px;stroke-linecap:butt;stroke-linejoin:miter;stroke-opacity:1">
    <path
       id="path4293"
       style="font-style:normal;font-variant:normal;font-weight:normal;font-stretch:normal;font-size:100px;font-family:Garamond;-inkscape-font-specification:Garamond"
       d="m 167.84863,300.03717 0.3418,-0.83008 q 3.95508,0 7.91016,0.0977 l 1.61132,0 q 0.73243,0 1.61133,-0.0488 3.17383,-0.14648 11.47461,-0.14648 1.66016,0 3.22266,0.0488 1.5625,0 3.02734,0.0488 0.29297,0.14649 0.43945,0.43946 l -0.0977,0.78125 q -0.29297,0.48828 -1.46485,0.48828 l -0.39062,0 q -1.36719,-0.0488 -4.49219,0.24414 -3.125,0.24414 -4.10156,0.97656 -0.63477,0.53711 -0.63477,1.41602 0,1.90429 1.61133,5.71289 l 7.42188,17.23632 2.58789,5.71289 q 3.75976,9.08204 7.42187,18.55469 0.39063,1.02539 0.73242,1.85547 l 3.27149,-8.00781 q 2.53906,-6.05469 5.12695,-12.89063 l 3.36914,-9.17968 q 0.0977,-0.29297 0.53711,-1.95313 4.73633,-12.93945 4.73633,-16.35742 0,-0.73242 -0.68359,-1.46484 -0.63477,-0.78125 -2.09961,-1.26954 -0.58594,-0.19531 -3.8086,-0.58593 l -3.61328,-0.43946 q -0.43945,-0.48828 -0.43945,-0.83007 l 0.14648,-0.39063 15.82032,-0.14648 5.22461,0 q 2.63671,0 3.61328,0.34179 l 0.0488,0.39063 q 0,0.39062 -0.29296,1.02539 -1.17188,0.39062 -2.14844,0.48828 -4.10156,0.48828 -5.07813,1.17187 -0.97656,0.63477 -2.05078,2.78321 l -12.84179,31.73828 q -6.00586,14.30664 -8.54493,22.16797 l -1.41601,4.24804 q -0.63477,0.39063 -1.07422,0.39063 -0.53711,0 -1.17188,-0.0977 -5.81054,-15.03906 -9.47265,-23.24218 l -14.94141,-33.88672 q -1.61133,-3.02735 -2.4414,-3.61328 -0.78125,-0.63477 -5.61524,-1.75782 -1.70898,-0.39062 -1.9043,-0.48828 -0.34179,-0.24414 -0.48828,-0.73242 z" />
    <path
       id="path4295"
       style="font-style:normal;font-variant:normal;font-weight:normal;font-stretch:normal;font-size:100px;font-family:Garamond;-inkscape-font-specification:Garamond"
       d="m 267.70215,336.16998 -19.58008,0.14649 -3.71094,0 q -2.24609,0 -4.58984,0.19531 -0.43945,1.46484 -0.43945,2.00195 l 0.0488,0.48828 0,0.48829 -0.0488,2.39257 q 0,2.97852 1.85546,7.32422 1.9043,4.29688 5.3711,6.5918 3.51562,2.24609 8.74023,2.39258 2.78321,-0.14649 4.44336,-0.6836 1.66016,-0.53711 4.6875,-2.49023 l 3.51563,-2.88086 0.29297,1.95312 q 0,0.3418 -0.0488,0.73243 -2.19727,2.7832 -5.56641,4.88281 -3.36914,2.09961 -6.83594,3.07617 -1.66015,0.43945 -5.46875,0.43945 -3.46679,0 -6.83593,-1.41601 -4.98047,-2.14844 -7.86133,-6.88477 -2.83203,-4.78515 -2.83203,-11.57226 0,-2.14844 0.78125,-5.51758 0.83008,-3.36914 2.92968,-7.17774 1.41602,-2.58789 3.4668,-4.24804 2.92969,-2.34375 5.12695,-3.27149 3.17383,-1.31836 7.37305,-1.31836 4.54102,0 7.42188,1.66016 3.90625,2.19727 5.81054,5.66406 1.95313,3.4668 1.95313,6.34766 l 0,0.68359 z m -27.2461,-1.75781 2.29493,0 q 2.49023,0 14.84375,-0.78125 1.95312,-0.0977 2.39257,-0.39062 0.87891,-0.92774 0.87891,-1.66016 0,-1.51367 -0.97656,-3.41797 -0.97656,-1.95312 -3.02735,-2.97852 -2.00195,-1.07421 -4.6875,-1.07421 -5.66406,0 -9.08203,4.24804 -2.63672,3.22266 -2.63672,6.05469 z" />
    <path
       id="path4297"
       style="font-style:normal;font-variant:normal;font-weight:normal;font-stretch:normal;font-size:100px;font-family:Garamond;-inkscape-font-specification:Garamond"
       d="m 309.64551,353.01569 0.0488,3.17382 q -3.8086,4.05274 -7.51954,5.66407 -3.71093,1.61132 -8.74023,1.61132 -5.46875,0 -9.86328,-2.83203 -4.39453,-2.88086 -6.78711,-8.10547 -2.34375,-5.2246 -2.34375,-10.2539 0,-5.51758 2.83203,-10.40039 2.88086,-4.93164 7.56836,-7.32422 4.73633,-2.44141 11.86523,-2.44141 6.83594,0 10.4004,2.34375 2.00195,1.36719 2.00195,3.51563 0,1.5625 -1.02539,2.58789 -1.02539,1.02539 -2.63672,1.02539 -2.44141,0 -5.37109,-3.02734 -1.80665,-1.85547 -3.27149,-2.53907 -1.46484,-0.73242 -3.27148,-0.73242 -4.34571,0 -7.22657,3.56445 -4.0039,5.07813 -4.0039,12.74414 0,7.91016 4.10156,12.59766 4.10156,4.6875 9.57031,4.6875 3.8086,0 6.73828,-1.2207 2.97852,-1.26953 6.9336,-4.63867 z" />
    <path
       id="path4299"
       style="font-style:normal;font-variant:normal;font-weight:normal;font-stretch:normal;font-size:100px;font-family:Garamond;-inkscape-font-specification:Garamond"
       d="m 326.19824,313.70905 1.51367,0.0488 0.19532,4.63868 -0.0977,6.00585 q 0.92773,0.0488 1.17188,0.0488 1.26953,0 4.83398,-0.19531 2.29492,-0.14648 4.39453,-0.14648 0.97656,0 2.92969,0.0488 0.0976,0.97657 0.0976,1.5625 0,0.63477 -0.29296,2.00196 l -0.83008,0 -7.56836,0.24414 -3.75977,0.0976 -0.8789,0.0977 q -0.39063,1.2207 -0.39063,2.83203 l 0.14649,7.32422 -0.0977,12.89063 q 0,5.07812 1.31836,6.73828 1.26953,1.70898 3.80859,1.70898 1.26953,0 4.78516,-0.78125 1.07422,-0.24414 2.88086,-1.61133 l 0.43945,0 q 0.43945,0 0.6836,0.29297 0.29296,0.24414 0.29296,0.6836 l -0.0488,0.34179 q -2.09961,2.29492 -4.83399,3.36914 -2.68555,1.02539 -7.17773,1.02539 -3.17383,0 -5.27344,-1.46484 -2.05078,-1.46484 -2.63672,-3.4668 -0.58594,-2.00195 -0.58594,-8.74023 l 0.19532,-10.98633 -0.0488,-5.27344 0,-1.95312 q 0,-1.36719 -0.0977,-2.73438 l -0.83008,-0.0488 -4.0039,0.14649 -0.39063,0.0488 q -0.53711,0 -0.83008,-0.24414 -0.24414,-0.24414 -0.24414,-0.58594 0,-0.58594 0.3418,-0.92774 0.39063,-0.39062 2.24609,-1.17187 1.26954,-0.53711 2.92969,-2.00195 1.70899,-1.51368 2.88086,-3.32032 0.58594,-0.97656 1.66016,-3.71093 0.78125,-2.00196 1.17187,-2.83203 z" />
    <path
       id="path4301"
       style="font-style:normal;font-variant:normal;font-weight:normal;font-stretch:normal;font-size:100px;font-family:Garamond;-inkscape-font-specification:Garamond"
       d="m 344.89941,342.32233 q 0,-3.32032 1.36719,-7.08008 1.41602,-3.8086 4.24805,-6.78711 2.83203,-3.02734 6.00586,-4.49219 4.44336,-2.05078 10.83984,-2.05078 9.13086,0 15.23438,6.25 6.15234,6.25 6.15234,15.03906 0,7.8125 -6.44531,13.96485 -6.39649,6.10351 -16.21094,6.10351 -6.05469,0 -11.42578,-3.17383 -4.00391,-2.39257 -6.88477,-7.08007 -2.88086,-4.6875 -2.88086,-10.69336 z m 21.58204,19.04297 q 3.71093,0 7.1289,-2.00196 3.4668,-2.00195 5.51758,-6.39648 2.05078,-4.44336 2.05078,-10.25391 0,-3.80859 -1.61133,-8.83789 -1.5625,-5.0293 -4.88281,-7.51953 -3.27148,-2.53906 -7.71484,-2.53906 -3.22266,0 -6.5918,1.51367 -3.32031,1.51367 -5.66406,5.81055 -2.29492,4.29687 -2.29492,12.20703 0,8.88672 4.0039,13.47656 4.05274,4.54102 10.0586,4.54102 z" />
    <path
       id="path4303"
       style="font-style:normal;font-variant:normal;font-weight:normal;font-stretch:normal;font-size:100px;font-family:Garamond;-inkscape-font-specification:Garamond"
       d="m 394.31348,362.09772 -0.19532,-0.63477 q 0,-0.3418 0.43946,-1.02539 l 2.88086,-0.58594 4.05273,-0.73242 q 0.48828,-0.24414 0.68359,-0.68359 0.29297,-0.63477 0.29297,-3.75977 0,-16.60156 -0.19531,-19.14062 -0.19531,-2.58789 -0.87891,-3.27149 -0.68359,-0.68359 -3.51562,-1.07422 -1.66016,-0.24414 -2.63672,-0.63476 l 0.19531,-1.46485 q 5.12696,-2.0996 6.88477,-3.61328 2.44141,-2.19726 4.15039,-5.76172 l 1.66016,0.0488 q 0.29296,2.44141 0.29296,10.83985 l -0.0488,0.83007 q 0,0.29297 0.0976,0.92774 1.85547,-3.36914 4.63867,-6.20117 l 1.12305,-1.12305 q 0.6836,-0.78125 1.31836,-1.2207 3.41797,-2.05078 5.07813,-2.05078 2.14843,0 3.51562,1.46484 1.36719,1.41602 1.36719,3.51562 0,1.66016 -0.97656,2.5879 -1.31836,1.2207 -3.02735,1.2207 -0.78125,0 -3.07617,-0.83008 -2.29492,-0.83008 -3.02734,-0.83008 -1.36719,0 -1.9043,0.43946 -1.36719,1.07421 -3.32031,4.39453 -1.51367,2.49023 -1.51367,4.58984 l 0.24414,8.05664 0.0976,9.66797 q 0.14649,1.66016 0.39063,2.14844 0.19531,0.34179 0.97656,0.83008 5.27344,0.43945 6.25,0.63476 0.68359,0.0488 1.02539,0.0977 2.09961,0.0488 2.92969,0.58593 0.43945,0.24415 0.43945,0.73243 0,0.29297 -0.39062,0.78125 l -5.41993,-0.0488 -2.05078,-0.0488 -2.97851,0.0488 -4.98047,0 -2.68555,0.14648 -8.20312,0.14649 z" />
  </g>
  <g
     id="text4208"
     style="font-style:normal;font-variant:normal;font-weight:normal;font-stretch:normal;font-size:15px;line-height:125%;font-family:'Microsoft YaHei';-inkscape-font-specification:'Microsoft YaHei';letter-spacing:0px;word-spacing:0px;fill:#000000;fill-opacity:1;stroke:none;stroke-width:1px;stroke-linecap:butt;stroke-linejoin:miter;stroke-opacity:1">
    <path
       id="path4306"
       style="font-style:normal;font-variant:normal;font-weight:normal;font-stretch:normal;font-size:100px;font-family:Garamond;-inkscape-font-specification:Garamond"
       d="m 282.83061,386.0885 0.53711,7.42188 q 0.29297,3.36914 0.29297,4.58984 l -1.36719,0.24414 q -3.27148,-7.42187 -8.15429,-11.13281 -4.83399,-3.71094 -11.86524,-3.71094 -8.59375,0 -13.3789,2.09961 -6.9336,2.97852 -11.86524,10.35156 -4.93164,7.37305 -4.93164,17.77344 0,6.00586 1.80664,10.79102 1.80664,4.78515 5.07813,8.93554 3.32031,4.10156 7.8125,7.12891 2.92968,2.00195 6.98242,3.02734 2.29492,0.53711 6.83594,0.53711 2.92968,0 6.49414,-0.83008 3.56445,-0.83007 5.37109,-2.19726 1.80664,-1.41602 2.44141,-3.17383 0.68359,-1.75781 0.68359,-6.83594 0,-8.44726 -1.12305,-9.81445 -1.12304,-1.41602 -7.08008,-1.85547 l -1.95312,-0.14648 -1.31836,0.0488 q -0.29297,-0.0488 -0.78125,-0.14648 l -0.73242,-1.2207 q 0,-0.24414 0.3418,-0.63477 2.53906,-0.39062 11.03515,-0.39062 1.9043,0 6.20117,0.0976 l 5.0293,0.19531 4.54102,-0.0488 q 1.31836,0 3.17382,0.0976 0.3418,0.0488 0.43946,0.19532 0.0976,0.0977 0.0976,0.39062 0,0.53711 -0.24414,1.36719 -2.05078,0.43945 -3.17383,0.43945 l -3.17382,-0.0488 q -1.61133,0 -2.58789,1.12305 -0.48829,0.53711 -0.48829,3.66211 l 0.0488,6.39648 q 0,6.5918 -0.53711,8.39844 -0.29297,1.07422 -1.2207,1.95313 -0.92773,0.83007 -3.90625,2.00195 -4.24805,1.70898 -7.71484,2.29492 -6.44532,1.12305 -12.45118,1.12305 -9.66796,0 -15.86914,-2.44141 -6.15234,-2.49023 -10.64453,-6.88476 -4.44336,-4.39454 -6.34765,-8.88672 -2.88086,-6.5918 -2.88086,-13.42774 0,-8.54492 4.49218,-16.69922 4.54102,-8.20312 14.59961,-13.33007 7.08008,-3.61329 19.23829,-3.61329 8.39843,0 13.7207,1.46485 5.37109,1.46484 8.49609,3.32031 z" />
    <path
       id="path4308"
       style="font-style:normal;font-variant:normal;font-weight:normal;font-stretch:normal;font-size:100px;font-family:Garamond;-inkscape-font-specification:Garamond"
       d="m 296.79546,445.51233 -0.19532,-0.63477 q 0,-0.34179 0.43946,-1.02539 l 2.88086,-0.58593 4.05273,-0.73243 q 0.48828,-0.24414 0.68359,-0.68359 0.29297,-0.63477 0.29297,-3.75977 0,-16.60156 -0.19531,-19.14062 -0.19531,-2.58789 -0.87891,-3.27149 -0.68359,-0.68359 -3.51562,-1.07421 -1.66016,-0.24414 -2.63672,-0.63477 l 0.19531,-1.46484 q 5.12696,-2.09961 6.88477,-3.61328 2.4414,-2.19727 4.15039,-5.76172 l 1.66016,0.0488 q 0.29296,2.44141 0.29296,10.83985 l -0.0488,0.83008 q 0,0.29297 0.0976,0.92773 1.85547,-3.36914 4.63867,-6.20117 l 1.12305,-1.12305 q 0.68359,-0.78125 1.31836,-1.2207 3.41797,-2.05078 5.07813,-2.05078 2.14843,0 3.51562,1.46484 1.36719,1.41602 1.36719,3.51563 0,1.66015 -0.97656,2.58789 -1.31836,1.2207 -3.02735,1.2207 -0.78125,0 -3.07617,-0.83008 -2.29492,-0.83008 -3.02734,-0.83008 -1.36719,0 -1.9043,0.43946 -1.36719,1.07422 -3.32031,4.39453 -1.51368,2.49023 -1.51368,4.58984 l 0.24415,8.05664 0.0977,9.66797 q 0.14649,1.66016 0.39063,2.14844 0.19531,0.3418 0.97656,0.83008 5.27344,0.43945 6.25,0.63476 0.68359,0.0488 1.02539,0.0977 2.09961,0.0488 2.92969,0.58594 0.43945,0.24414 0.43945,0.73242 0,0.29297 -0.39062,0.78125 l -5.41993,-0.0488 -2.05078,-0.0488 -2.97851,0.0488 -4.98047,0 -2.68555,0.14648 -8.20312,0.14649 z" />
    <path
       id="path4310"
       style="font-style:normal;font-variant:normal;font-weight:normal;font-stretch:normal;font-size:100px;font-family:Garamond;-inkscape-font-specification:Garamond"
       d="m 367.88921,438.72522 q 0.29296,0.63477 0.29296,0.92773 0,0.73243 -1.17187,2.58789 -1.51367,2.44141 -3.36914,3.56446 -1.17188,0.73242 -3.22266,0.73242 -3.51562,0 -5.27343,-2.14844 -1.07422,-1.26953 -1.51368,-4.54101 l -5.46875,3.80859 q -2.88086,1.66016 -4.39453,2.09961 -2.4414,0.63477 -5.85937,0.63477 -2.49024,0 -3.95508,-1.46485 -1.41602,-1.51367 -1.41602,-3.85742 0,-3.36914 4.10157,-8.05664 4.15039,-4.6875 11.23046,-7.66602 4.98047,-2.09961 6.10352,-2.68554 0.0977,-1.61133 0.0977,-3.51563 0,-6.20117 -1.75782,-8.39844 -1.70898,-2.19726 -4.93164,-2.19726 -3.36914,0 -6.29882,2.63672 -1.80665,1.66015 -2.73438,6.25 -0.29297,1.26953 -1.12305,2.73437 -2.09961,1.36719 -3.36914,1.36719 -1.07422,0 -1.95312,-0.63477 -0.48828,-0.34179 -0.48828,-0.78125 0,-1.26953 2.68554,-5.71289 2.73438,-4.49218 6.83594,-6.68945 4.15039,-2.24609 7.22656,-2.24609 4.19922,0 6.25,0.78125 2.05078,0.73242 3.61328,2.63672 1.5625,1.90429 1.9043,4.15039 0.19531,1.07421 0.19531,7.66601 l -0.14648,7.76367 0.0488,5.66407 q 0,1.12304 -0.0488,1.90429 -0.0488,1.41602 -0.0488,2.09961 0,1.61133 0.92774,2.58789 0.92773,0.97657 2.19726,0.97657 1.85547,0 3.17383,-1.85547 l 0.58594,-0.78125 q 0.24414,-0.14649 1.07422,-0.3418 z m -14.35547,-1.41602 q 0.34179,-6.20117 0.34179,-8.74023 0,-1.31836 -0.14648,-3.56445 -3.27148,1.17187 -6.93359,3.56445 -3.66211,2.39258 -5.81055,5.51758 -1.5625,2.24609 -1.5625,4.24804 0,1.9043 1.26953,3.17383 1.31836,1.26953 3.27148,1.26953 1.51368,0 3.66211,-1.07421 2.83204,-1.41602 5.90821,-4.39454 z" />
    <path
       id="path4312"
       style="font-style:normal;font-variant:normal;font-weight:normal;font-stretch:normal;font-size:100px;font-family:Garamond;-inkscape-font-specification:Garamond"
       d="m 370.03764,470.85413 q -0.0488,-0.53711 -0.0488,-0.97657 0,-0.34179 0.0977,-0.83007 l 4.88281,-0.97657 q 1.17188,-0.58593 1.9043,-1.41601 0.24414,-0.87891 0.24414,-1.75782 0,-7.51953 -0.39062,-28.6621 l -0.14649,-17.8711 q -0.0976,-4.24805 -0.53711,-5.37109 -0.24414,-0.58594 -0.73242,-0.92774 -1.2207,-0.92773 -4.88281,-1.5625 l 0.29297,-1.46484 q 5.27343,-2.24609 7.03125,-3.4668 1.80664,-1.26953 3.41797,-3.51562 l 0.58593,-0.14649 q 0.3418,0 0.97657,0.29297 -0.0488,3.07617 -0.0488,4.05274 l 0.0488,5.37109 q 3.61328,-2.73437 7.51953,-4.05273 3.90625,-1.36719 8.10547,-1.36719 7.51953,0 12.69531,5.32226 5.17578,5.27344 5.17578,13.62305 0,6.20117 -2.92969,11.13281 -2.88086,4.93164 -8.00781,7.37305 -5.07813,2.44141 -10.25391,2.44141 -4.39453,0 -10.05859,-2.39258 -0.92773,-0.39063 -1.66016,-0.6836 -0.0976,3.90625 -0.0976,6.9336 0,15.08789 0.83008,16.89453 0.43945,0.97656 2.73437,1.17187 3.90625,0.29297 5.17578,1.12305 0.73242,0.43945 0.97656,1.75781 l -4.83398,0.0977 -4.39453,-0.0977 -7.32422,0.0488 -6.34766,-0.0976 z m 12.74414,-55.85938 q -0.0977,0.68359 -0.0977,1.26953 0,17.43164 0.34179,19.53125 0.6836,3.85742 2.73438,5.41992 3.17383,2.49024 9.08203,2.49024 6.10352,0 10.30274,-4.19922 4.19921,-4.24805 4.19921,-10.98633 0,-8.10547 -4.44336,-12.8418 -4.44335,-4.73632 -11.71875,-4.73632 -3.07617,0 -5.66406,1.02539 -2.58789,0.97656 -4.73633,3.02734 z" />
    <path
       id="path4314"
       style="font-style:normal;font-variant:normal;font-weight:normal;font-stretch:normal;font-size:100px;font-family:Garamond;-inkscape-font-specification:Garamond"
       d="m 421.64897,444.19397 q 5.71289,-1.02539 6.5918,-1.5625 0.53711,-0.3418 0.53711,-1.5625 l -0.0488,-3.22266 0.0488,-5.71289 -0.0977,-14.55078 0.0488,-5.41992 0,-3.85742 0.14648,-4.73633 q 0,-11.13281 -0.24414,-13.28125 -0.19531,-2.19727 -0.83007,-2.73438 -1.17188,-1.12304 -6.44532,-2.34375 l 0,-0.24414 q 0,-0.34179 0.0977,-0.97656 0.68359,-0.0977 1.31836,-0.24414 0.63476,-0.14648 1.2207,-0.19531 5.81055,-1.66016 8.44727,-3.22266 l 2.39258,0 q 0.0977,1.36719 0.0977,8.64258 l -0.0488,6.20117 0.0488,8.00781 -0.19531,9.86329 q 0,0.8789 0.0977,1.95312 3.07617,-3.56445 4.49218,-4.73633 2.53907,-2.05078 5.41992,-3.22265 2.88086,-1.22071 6.05469,-1.22071 6.00586,0 9.81446,5.07813 2.19726,2.97851 2.19726,8.44726 l -0.14648,4.98047 0.0488,2.78321 -0.19531,4.83398 q -0.19531,6.00586 -0.19531,7.12891 0,1.26953 0.0977,3.41797 l 2.7832,0.63476 q 2.7832,0.58594 4.29687,1.07422 l -0.0488,1.51367 -10.40039,-0.29297 q -0.87891,0 -4.78516,0.19532 -2.39258,0.0977 -2.7832,0.0977 l -1.07422,0 q -0.24414,-0.43945 -0.24414,-0.73242 l 0,-0.43945 q 0.68359,-0.87891 2.53906,-1.17188 l 2.92969,-0.68359 q 0.58593,-0.48828 0.68359,-1.02539 0.19531,-1.26953 0.43945,-12.59766 l 0.0977,-3.61328 q 0.19531,-5.71289 -0.87891,-9.47266 -0.68359,-2.58789 -3.125,-4.10156 -2.39257,-1.5625 -5.5664,-1.5625 -2.63672,0 -4.98047,1.12305 -1.61133,0.83008 -3.85742,2.88086 -2.2461,2.05078 -3.125,3.51562 -0.58594,0.97656 -0.58594,3.22266 l 0.0488,3.41797 -0.0977,3.56445 q 0,0.43945 0.14649,6.10352 l -0.0488,3.125 0.0976,3.41796 q 0.0488,0.73243 0.14649,1.07422 l 6.88476,1.66016 q 0.53711,0.14648 1.61133,0.58594 l 0.14649,0.53711 q 0,0.24414 -0.24414,0.78125 -1.41602,0.0488 -2.14844,0.0488 l -3.8086,-0.0488 -8.39843,0.0976 -6.29883,0.19532 q -0.48828,-0.0488 -1.46485,-0.0977 l -0.0488,-0.3418 q 0,-0.39062 0.39062,-0.97656 z" />
    <path
       id="path4316"
       style="font-style:normal;font-variant:normal;font-weight:normal;font-stretch:normal;font-size:100px;font-family:Garamond;-inkscape-font-specification:Garamond"
       d="m 477.70366,385.35608 q 0,-1.61133 1.2207,-2.7832 1.26953,-1.17188 3.02735,-1.17188 1.80664,0 3.17382,1.31836 1.36719,1.31836 1.36719,2.83203 0,1.51367 -1.36719,2.88086 -1.36718,1.31836 -3.17382,1.31836 -1.80664,0 -3.02735,-1.2207 -1.2207,-1.22071 -1.2207,-3.17383 z m -4.10156,25.29297 0.0488,-1.41602 q 3.17383,-0.92773 3.41797,-1.07422 1.75782,-0.78125 3.66211,-2.39257 1.95313,-1.61133 3.27149,-3.61329 0.58593,-0.0976 0.92773,-0.0976 l 0.58594,0.0488 q 0.19531,2.34375 0.19531,3.41796 0,0.24415 -0.0977,2.19727 l 0,2.58789 0.0488,14.0625 -0.14648,14.89258 q -0.0488,1.80664 0.58594,2.53906 0.63476,0.6836 3.75976,1.5625 1.95313,0.53711 2.92969,0.92774 0.14648,0.34179 0.14648,0.58593 0,0.29297 -0.24414,0.73243 -1.90429,-0.0488 -4.88281,-0.24415 -4.05273,-0.34179 -5.37109,-0.34179 -0.63477,0 -7.8125,0.24414 -1.46485,0.0488 -2.83203,0.24414 -0.24414,0 -0.78125,-0.14649 -0.24414,-0.34179 -0.24414,-0.58593 0,-0.6836 0.92773,-1.07422 0.19531,-0.0977 4.98047,-1.12305 1.5625,-0.29297 2.05078,-0.97656 0.83008,-1.02539 0.83008,-3.27149 0.0977,-3.75976 0.0977,-20.60546 0,-3.36914 -0.29296,-4.19922 -0.24415,-0.58594 -1.31836,-1.31836 -1.02539,-0.78125 -4.44336,-1.5625 z" />
    <path
       id="path4318"
       style="font-style:normal;font-variant:normal;font-weight:normal;font-stretch:normal;font-size:100px;font-family:Garamond;-inkscape-font-specification:Garamond"
       d="m 532.6353,436.4303 0.0488,3.17383 q -3.8086,4.05273 -7.51953,5.66406 -3.71094,1.61133 -8.74024,1.61133 -5.46875,0 -9.86328,-2.83203 -4.39453,-2.88086 -6.78711,-8.10547 -2.34375,-5.22461 -2.34375,-10.25391 0,-5.51758 2.83203,-10.40039 2.88086,-4.93164 7.56836,-7.32422 4.73633,-2.44141 11.86524,-2.44141 6.83593,0 10.40039,2.34375 2.00195,1.36719 2.00195,3.51563 0,1.5625 -1.02539,2.58789 -1.02539,1.02539 -2.63672,1.02539 -2.44141,0 -5.37109,-3.02734 -1.80664,-1.85547 -3.27149,-2.53907 -1.46484,-0.73242 -3.27148,-0.73242 -4.3457,0 -7.22656,3.56446 -4.00391,5.07812 -4.00391,12.74414 0,7.91015 4.10156,12.59765 4.10156,4.6875 9.57031,4.6875 3.8086,0 6.73829,-1.2207 2.97851,-1.26953 6.93359,-4.63867 z" />
    <path
       id="path4320"
       style="font-style:normal;font-variant:normal;font-weight:normal;font-stretch:normal;font-size:100px;font-family:Garamond;-inkscape-font-specification:Garamond"
       d="m 542.30327,432.9635 q 1.80664,4.63867 2.73437,6.00586 1.85547,2.7832 4.44336,4.3457 2.58789,1.51368 5.61524,1.51368 2.7832,0 5.51758,-2.39258 1.95312,-1.80664 1.95312,-4.19922 0,-3.17383 -2.29492,-5.85938 -2.29492,-2.63672 -8.74024,-5.02929 -6.39648,-2.44141 -8.59375,-5.17578 -2.19726,-2.73438 -2.19726,-6.25 0,-3.32032 1.80664,-5.85938 1.80664,-2.53906 4.98047,-3.80859 3.17383,-1.31836 5.85937,-1.31836 3.4668,0 6.20117,0.53711 2.78321,0.53711 4.78516,1.66015 0.39063,2.49024 0.63477,7.32422 l 0.0977,1.5625 q -0.63476,0.0488 -1.07422,0.0488 l -0.68359,0 q -1.46484,-4.05273 -4.49219,-6.39648 -2.97851,-2.39258 -5.9082,-2.39258 -2.92969,0 -4.73633,1.80664 -1.80664,1.75781 -1.80664,4.63867 0,2.19727 1.46484,3.90625 1.46485,1.70898 6.83594,3.90625 5.41992,2.19727 7.86133,4.10156 2.49023,1.85547 3.66211,4.54102 1.17187,2.68554 1.17187,5.12695 0,3.36914 -2.24609,6.29883 -2.19726,2.92969 -5.56641,4.10156 -3.32031,1.2207 -5.95703,1.2207 -6.20117,0 -11.42578,-2.29492 -0.48828,-0.39062 -0.53711,-1.46484 0,-0.43945 -0.0977,-1.41602 -0.78125,-6.59179 -0.78125,-7.8125 0,-0.58593 0.24414,-0.78125 0.24414,-0.19531 1.26953,-0.19531 z" />
  </g>
</svg>
